/* XPM */
static char *close_door1652478404[] = {
/* columns rows colors chars-per-pixel */
"50 50 254 2 ",
"   c #070702",
".  c #160703",
"X  c #171209",
"o  c #0F160E",
"O  c #2D0600",
"+  c #280700",
"@  c #330B00",
"#  c #320500",
"$  c #291809",
"%  c #391406",
"&  c #281C19",
"*  c #361B11",
"=  c #1F291B",
"-  c #332519",
";  c #192D34",
":  c #0F2D2E",
">  c #343736",
",  c #2F332E",
"<  c #061F26",
"1  c #491605",
"2  c #591A02",
"3  c #4D0600",
"4  c #6C1D00",
"5  c #671901",
"6  c #721D00",
"7  c #56240A",
"8  c #4C2716",
"9  c #562816",
"0  c #552C12",
"q  c #6D2301",
"w  c #652607",
"e  c #7B2601",
"r  c #7C2B04",
"t  c #782A08",
"y  c #7B310C",
"u  c #773518",
"i  c #6C2E18",
"p  c #503328",
"a  c #663322",
"s  c #733823",
"d  c #2F4338",
"f  c #4D4538",
"g  c #784934",
"h  c #273642",
"j  c #093E44",
"k  c #094E4E",
"l  c #284646",
"z  c #375659",
"x  c #314E4E",
"c  c #3A655E",
"v  c #345A62",
"b  c #17756A",
"n  c #186C76",
"m  c #197477",
"M  c #126D6D",
"N  c #316F6F",
"B  c #1D5E64",
"V  c #49514E",
"C  c #6D5549",
"Z  c #476367",
"A  c #59787A",
"S  c #4C716D",
"D  c #667978",
"F  c #77756F",
"G  c #455F5E",
"H  c #842C02",
"J  c #862E09",
"K  c #872A05",
"L  c #83330C",
"P  c #8C340B",
"I  c #893608",
"U  c #94380B",
"Y  c #843412",
"T  c #893A17",
"R  c #943B13",
"E  c #973D19",
"W  c #892E13",
"Q  c #873E26",
"!  c #8D421D",
"~  c #94431B",
"^  c #9B431B",
"/  c #99481C",
"(  c #8F420B",
")  c #A3461C",
"_  c #B4551F",
"`  c #8A4728",
"'  c #9B4622",
"]  c #9B4A24",
"[  c #974A28",
"{  c #9D522D",
"}  c #964C34",
"|  c #995436",
" . c #8B4D38",
".. c #A54C27",
"X. c #AB532C",
"o. c #A6562C",
"O. c #B5562A",
"+. c #A45433",
"@. c #AB5532",
"#. c #AD5B35",
"$. c #A7593B",
"%. c #B65C38",
"&. c #AF4F2D",
"*. c #AD633C",
"=. c #B3623D",
"-. c #BC643C",
";. c #BA6739",
":. c #B7642E",
">. c #C25E39",
",. c #CC5E2D",
"<. c #C36435",
"1. c #C3643C",
"2. c #C36B3E",
"3. c #CB693A",
"4. c #D36C3D",
"5. c #905D4E",
"6. c #AA5E45",
"7. c #B95F43",
"8. c #986B57",
"9. c #93644D",
"0. c #AB6446",
"q. c #BB6543",
"w. c #BC6A44",
"e. c #BC6549",
"r. c #BC6C4B",
"t. c #B56946",
"y. c #BC7349",
"u. c #B17053",
"i. c #917A6F",
"p. c #B37467",
"a. c #C36543",
"s. c #C36B44",
"d. c #CA6C43",
"f. c #C46E4A",
"g. c #CB6D4B",
"h. c #C66548",
"j. c #D16D43",
"k. c #D26E4D",
"l. c #CD7346",
"z. c #C5724B",
"x. c #CB734C",
"c. c #C77747",
"v. c #D37244",
"b. c #D2734C",
"n. c #D97A4B",
"m. c #C46C50",
"M. c #C57452",
"N. c #CC7551",
"B. c #CB7957",
"V. c #D37B54",
"C. c #DB7C52",
"Z. c #D57855",
"A. c #E67C47",
"S. c #E17E57",
"D. c #CA7F6A",
"F. c #D16E55",
"G. c #3B817F",
"H. c #6E837C",
"J. c #458179",
"K. c #A68777",
"L. c #D98258",
"P. c #DB814D",
"I. c #E4895D",
"U. c #EB8B5C",
"Y. c #E88559",
"T. c #E98D5D",
"R. c #D98765",
"E. c #D28C68",
"W. c #EC8C62",
"Q. c #E68A66",
"!. c #F28E65",
"~. c #E89369",
"^. c #F39367",
"/. c #E79373",
"(. c #577D81",
"). c #647D82",
"_. c #568C94",
"`. c #4C9798",
"'. c #549495",
"]. c #59979A",
"[. c #4B908C",
"{. c #658886",
"}. c #748A86",
"|. c #648D94",
" X c #689799",
".X c #76999A",
"XX c #719091",
"oX c #4BA29E",
"OX c #50A29E",
"+X c #71A49B",
"@X c #4C98A5",
"#X c #5799A4",
"$X c #528EA2",
"%X c #699AA4",
"&X c #789AA6",
"*X c #58A5A8",
"=X c #59B7B9",
"-X c #50A9AA",
";X c #66A5A8",
":X c #76A6A8",
">X c #76AAB4",
",X c #69B7B7",
"<X c #75B6B7",
"1X c #6CB6AE",
"2X c #6AC3BE",
"3X c #70C0BD",
"4X c #5AB9C2",
"5X c #64BEC4",
"6X c #7BBEC4",
"7X c #5BC9CA",
"8X c #5ACCD2",
"9X c #5BD2D5",
"0X c #5DD1CE",
"qX c #66C6C8",
"wX c #7AC7C9",
"eX c #68CDD3",
"rX c #7CCCD2",
"tX c #67D5DA",
"yX c #76D7D4",
"uX c #71D5CF",
"iX c #7ADCE1",
"pX c #7FE4E5",
"aX c #3E9898",
"sX c #849A98",
"dX c #839190",
"fX c #859CA3",
"gX c #87B9B9",
"hX c #92B6B5",
"jX c #AABBBD",
"kX c #80A19A",
"lX c #84C6BE",
"zX c #A5C0B7",
"xX c #8BBCC7",
"cX c #AFB8C2",
"vX c #86C8C9",
"bX c #86CBD3",
"nX c #87D8D8",
"mX c #94D6D5",
"MX c #8ED0D0",
"NX c #B1CACA",
"BX c #8DDAE5",
"VX c #89E3E4",
"CX c #95E9E9",
"ZX c #A3E6E6",
"AX c #99E1DE",
"SX c #D8ECEC",
"DX c #EEFDFA",
"FX c #F4FBF4",
"GX c #F5FDFC",
"HX c #FDFEFE",
"JX c #F8F7F7",
"KX c #E2EAEC",
"LX c #C6CACC",
"PX c #D1ACA3",
/* pixels */
"HXHXHXHXHXHXHXHXFXFXFXFXFXFXHXHXHXLXjXcX].j k k k k k k k B lXNXcXKXGXGXGXFXHXHXHXHXJXJXHXHXHXHXHXHX",
"HXHXHXGXHXHXHXJXHXGXHXFXHXGXSXsXsXG c v ].nX2XlXlXlXxXrXrXbXN z G {.sXjXGXGXHXJXHXHXHXJXJXHXHXHXHXHX",
"HXHXFXGXHXHXHXJXFXHXHXHXjXJ.A N G.wX6X6XvX2X2X'.]. X#X*XyX,XvXvXbX$XS N |.).SXGXHXJXHXJXHXHXJXHXHXHX",
"HXHXGXHXHXHXJXHXGXSXZ z A _.1XCX5XaX*X;X].<XmX X.X.X|.<XmX].|. X(.=XBXAX_.|.S x hXDXFXGXFXHXHXHXHXHX",
"HXHXGXHXHXJXHXDXcXz >X;X>X<X1X;XnX<X_.).}.Z = = & & & = l }.D {.:X3XxX;X6X>X;X<XS S SXFXFXHXFXHXHXHX",
"HXHXHXFXHXGXSXXXv xXwXrX X|.kXXXS .X> X $ * 8 8 7 1 p p * $ $ $ D {.J.fX&X_.5XrXnX[.c zXHXHXFXHXHXHX",
"HXHXHXDXGXNXv (.xX.X X1XvX{.V V X $ 8 a 5 s +.~ [ [ ` ` g 7 2 w % $ - V v <XbX*XoX,X>Xc }.DXHXHXHXHX",
"HXJXHXHX).Z ;X6X]. X.X.XJ.d $ % i 7 ` $.[ E ~.2.2.-.s.y.#.t s.#.Y w 0 $ = G {.%X].].;X<XA Z LXHXHXHX",
"HXJXJXJX: `.CX2X*X+X{.f $ 0 u u $.$.7.Z.&.R W.<.<.;.*.t.o.I T.n.1.#.[ s a * & D  X>X=XrXCX: fXGXJXHX",
"JXHXJX; :X3XoX=XlXA , * 7 0.L.s.d.-.a.Z...R W.<.<.;.t.y.o.y U.4.j.j.s.;.t.u 8 * V &XvX-X@XmXl XXJXJX",
"HXKXsXv ;X<X].:X).  8 Q y X.Y.4.j.a.f.B.' E W.a.2.s.r.y.#.P Y.4.j.d.l.P.c.r { a + , sX X*XrXG.S NXGX",
"GXNX< MX,X'.%X).h 8 9 6.^ _ U.3.4.1.z.N.' E W.1.g.g.r.r.@.W S.j.>.a.c.c.:.r V.$.3 - S  X`.`.VXN x GX",
"cXZ  X=XuX3XhXV . a } z.P _ Y.,.v.2.z.M.' ~ W.<.g.g.s.e.&.J W.j.a.h.z.c.:.H S.7.Q 3 X fXvXvX<X;XA A ",
"dX< ZXoXOX3XG & a u r.s.K _ W.>.x.x.z.z.^ ^ I.3.v.j.s.h.&.J I.h.h.h.f.c.:.e n.S.} i - ;  X1X`.mXXX: ",
"fX; CX`.;X+XV . s e.e.y.U #.Q.>.g.g.f.r./ ( T.<.j.v.j.h.&.P Y.s.;.s.s.2.:.H Y.k.M. .8 . XX X#XbX|.< ",
"|.N 5X*X'.A p % i h.0.y.I o.Q.q.a.x.s.s.) ^ T.<.4.j.4.h.O.J I.2.q.q.z.x.c.H C.g.e.| 1 * V |.$X<X;XN ",
"b CXqX2XMXl .  .e.s.-.-.R O.L.-.a.s.q.a...R ^.3.l.2.d.d.#.K W.d.w.q.a.n.d.H Y.l.%.e.} 8   :XrX5XiXyX",
"m VX=X1XlX> @ } /.s.s.g.P O.~.=.a.f.f.f.] R T.n.l.d.x.x.#.P I.d.y.r.b.b.g.e L.L.7.m.=.0 X H.wX=XeX8X",
"n BX*X'.dX- # ` M.X.%.%.J / c.o.@.@.@.#.E Y 4.<.X.X.%.-.' r 2.%.o.o.X.X.X.H <.;.o.*.] 7 X H..X[.4X8X",
"n nX'.{.H.9.` [ ..^ ^ ^ ' [ ] ^ ] ] ' ] ' ~ ..) ..^ ~ ] [ R O.) / / / / ^ E ) ) / ~ / ` g F H.'.4X0X",
"n VXwXhXf 0./.C.C.L.I.L.R.S.S.C.R.~.R.R.E.B.C.P.L.~.R.V.R.R.V.V.L.L.~.L.Q.C.Y.C.~.~.S.S.D.p dXlXuX0X",
"m VX1XgXV u.R.%.1.2.c.y.q.7.h.q.q.M.r.t.t.t.>.<.0.N.M.t.t.t.;.2.q.f.c.=.7.h.1.;.y.y.;.w.D.p H.1XuX9X",
"b nX[. XH.C g y H H H H L y L r t L y J y y K K J L H r Y L J H t Y t W t J y L y y y u p F ).|.4X7X",
"b nX`.]..X, @ y I H L I r H T P Y r Y Y y t U P P r Y Y t e P P J y W W Y t y L y Y u 0 . D fX_.4X0X",
"N nX2X,XvXl O } ~.;.u.y.E O.!.v.x.w.r.z.[ ~ ^.v.d.w.s.c.*.Y W.d.h.f.m.m.e.J P.P.s.M.$.0 o XXwX4X9X0X",
"B VX2X3XvXx # } /.;.u.u.P &.!.3.l.q.w.f.' ^ !.4.d.-.-.z.%.L I.d.q.r.e.e.e.t n.A.l.N.0.9 o  XwX4XtX9X",
"m mX`._.%Xh # | E.0.g 8.! X.P.<.l.s.q.s.~ E U.3.l.w.1.x.=.J Y.d.;.r.y.w.0.e P.A.3.d.t.8   A &X_.qX7X",
"m BX#X].>Xh O  .E.s K.C w o.U.<.g.f.s.s.' ^ Y.3.b.l.d.x.#.J I.4.-.y.y.;.=.e A.A.,.3.t.7 . ).&X$XqX8X",
"m VX2X,X6Xl + } E.g K.C w #.I.%.d.x.f.f.' E U.,.d.l.l.x.X.J U.3.<.s.y.t.%.K A.A.3.2.t.7 . XX6X=XtX9X",
"b nXqX2XbXx +  .E.0.0 8.` +.P.1.-.s.g.x...E U.3.<.g.x.x.X.J W.4.<.z.z.w.7.K A.A.3.x.0.9 X .XvXqXtX9X",
"b yXOX'.&X, # { E.*.u 9.` +.Q.>.a.s.z.x.' E W.<.1.g.x.l.X.J I.3.;.s.m.e.7.t A.A.d.N.6.9 . ).%X`.qX8X",
"b nX@X$X&X> # { ~.t.u 9.` +.Q.>.a.q.f.N.^ E !.<.2.f.x.x.@.J I.4.<.s.f.h.7.t S.v.h.m.+.a . A  X`.7X8X",
"G.uX=X1X<Xl O { E.t.a i.Q @.U.>.;.r.s.L...R !.1.%.x.N.b...P Y.4.1.d.k.h.a.K b.n.3.b.#.9    X<X=X9X8X",
"b pXqXyXmXx @ [ E.6.C C s #.P.<.w.t.q.x...E W.1.s.z.f.x.&.P U.3.d.k.g.g.q.H n.4.<.b.6.a o &XbXeXtXtX",
"m BX`.#X%X; @ | u.i PXg 2 #.I.:.r.t.w.z...^ I.a.w.f.f.N.&.K U.h.2.N.h.N.=.r P.4.j.N.6.9   ).%X$XqX8X",
"n BX$X#X>X> @  .E.6.g 8.u @.I.;.=.w.a.b...R W.a.q.s.s.x.&.K U.j.c.x.f.b.=.r P.v.2.f.$.9 . ).#X@X4X8X",
"m pX4X*X6Xh # } R.y.9.u.T @.W.;.s.-.-.b...U !.>.2.;.<.d.O.K W.j.l.2.<.c.t.e S.v.-.y.*.7   {.1X-XtX9X",
"m pXeXrXMXV @ } Q.;.*.y.I #.Q.%.w.w.-.v.) R !.>.;.-.a.h...K Y.C.d.;.2.c.;.e C.n.*.u.0.7 X .XMXeXtX8X",
"m nX*X#XXXp # [ /.;.;.P.H O.W.h.r.r.f.N.O.' Q.f.r.y.z.m.#.T I.Z.d.h.l.x.y.I L.V.t.y.*.7 . D .X`.7X7X",
"b nX`. XdXf 1 Y ..( ( ( H P ..E E T ' ~ I r X.E ~ T T E P e X.E ' R U ( ~ q ..^ ! T R w 1 i..X'.qX7X",
"m yX;X.XC 8.B.x.s.x.B.2.b.b.3.d.f.B.h.f.x.x.g.d.z.M.N.h.x.N.d.s.f.f.x.g.k.k.g.l.f.f.k.B.p.C (.*X7X0X",
"b CXvXNXp 8./.z.Z.M.R.L.z.l.Z.l.Z.R.L.x.c.z.f.b.B.Q.Z.B.M.z.b.B.M.R.R.f.g.Z.b.b.Q.Q.Z.M.p.p XXmXiX9X",
"m BX'..XV 8.0.[ { { | $.+.X.......$.+.[ +.{ { +.{ +.+...+.+.] o.+.+...o.@.@./ o.+.+.E +.5.C }.'.qX7X",
"m yXOX XsXf 1 t 5 4 5 2 q 6 5 6 4 4 5 6 q q e 4 4 5 6 6 6 4 e 4 5 4 5 5 6 5 q 7 4 4 e 2 % i..X`.=X8X",
"m iX-XoX:X> O ` g.%.=.#.I / m.#.#.#.@.#.~ Y z.X.@.=.X.%.' H l.X.#.=.@.=.{ y ;.;.o.{ | 0   H.OXoX8X8X",
"M pXuXuXMXV @  .!.d.Z.b.I X.Q.m.r.B.m.x./ / ^.2.B.b.b.b.O.H ~.l.x.z.x.V.t.t L.P.w.y.*.8 o :XMXyXiXtX",
"m nX-X`.>X, + { Q.>.g.g.I _ Q.%.f.f.s.w.~ ( W.=.x.q.g.k.X.I L.2.<.d.g.f.0.y Y.4.%.x.6.8   {.:X@X5X8X",
"N mX'.;X&X> @ [ Q.>.g.n.U O.I.q.z.w.q.z.[ ! Q.z.s.x.h.b.@.I I.d.;.s.g.e.0.t C.v.1.q.6.p   ).&X].5XeX",
"N MX%X XfX> +  .E.e.r.M.Q @.Q.s.f.t.t.r.} [ R.x.f.r.q.B.6.T R.z.q.s.q.M.6.u B.Z.%.M.5.9 o ).fX|.6X6X",
"'.l : : ; & . 1 [ W Y T 2 5 ] J T Y Y Q 2 2 [ I T Y L E t 3 [ Y L Y u Q u 3 T T Y Q i @   = ; ; j B "
};
