/* XPM */
static char *coin1652478404[] = {
/* columns rows colors chars-per-pixel */
"50 50 236 2 ",
"   c None",
".  c #CD841B",
"X  c #D1861D",
"o  c #D58B1E",
"O  c #D98D1F",
"+  c #D6921D",
"@  c #DB921F",
"#  c #E09C1F",
"$  c #CE8821",
"%  c #D68C23",
"&  c #D98D21",
"*  c #D68E2B",
"=  c #DC9323",
"-  c #DC9A24",
";  c #D7922E",
":  c #DC952C",
">  c #DE9B2B",
",  c #D69623",
"<  c #CE9237",
"1  c #D39433",
"2  c #DA9632",
"3  c #D49A36",
"4  c #DC9B35",
"5  c #D49B3C",
"6  c #DD9C39",
"7  c #D2973B",
"8  c #E19622",
"9  c #E39B24",
"0  c #E29D2D",
"q  c #E09D36",
"w  c #DDA42D",
"e  c #DCA23B",
"r  c #DBAC3B",
"t  c #DCA634",
"y  c #DCB43F",
"u  c #E6A224",
"i  c #E9A425",
"p  c #EEAB25",
"a  c #E5A32C",
"s  c #E9A52A",
"d  c #E4AB2C",
"f  c #ECAC2B",
"g  c #E6A826",
"h  c #F0AE2A",
"j  c #EDB22C",
"k  c #F3B226",
"l  c #F2B32C",
"z  c #F6B92D",
"x  c #F9BD2E",
"c  c #E4A333",
"v  c #E6AA35",
"b  c #EBAD34",
"n  c #E4A33A",
"m  c #E4AB3C",
"M  c #E9AD3C",
"N  c #EAA731",
"B  c #E6B133",
"V  c #EDB332",
"C  c #E4B33E",
"Z  c #EBB33B",
"A  c #EEBA3D",
"S  c #ECB934",
"D  c #F2B432",
"F  c #F4BB33",
"G  c #F9BE32",
"H  c #F1B63D",
"J  c #F3BC3B",
"K  c #F8BF3A",
"L  c #FBC334",
"P  c #FEC836",
"I  c #F5C13C",
"U  c #FBC53B",
"Y  c #FDCB3B",
"T  c #F5C63B",
"R  c #FFD03E",
"E  c #BB914B",
"W  c #BA8D47",
"Q  c #CB9846",
"!  c #D59E45",
"~  c #C59F54",
"^  c #DBA443",
"/  c #DDAB43",
"(  c #D3A44B",
")  c #DBA44C",
"_  c #DDAB4D",
"`  c #D6A648",
"'  c #DDB24A",
"]  c #DDBC4C",
"[  c #D9B346",
"{  c #C7A254",
"}  c #D1A551",
"|  c #DBAA53",
" . c #DCAD59",
".. c #D5AD52",
"X. c #DAB757",
"o. c #CBA04D",
"O. c #E1A442",
"+. c #E3AC44",
"@. c #E1A749",
"#. c #E3AB4B",
"$. c #E9AD43",
"%. c #E3B346",
"&. c #EAB343",
"*. c #EEBC44",
"=. c #E2B44A",
"-. c #EAB44B",
";. c #EABC4D",
":. c #E2BB47",
">. c #F2BE43",
",. c #E3AD53",
"<. c #E3B554",
"1. c #E4BB53",
"2. c #ECBB54",
"3. c #E6BB5C",
"4. c #ECBB5B",
"5. c #E6B257",
"6. c #DFB361",
"7. c #D8B961",
"8. c #E6BA67",
"9. c #E4BD75",
"0. c #DBC054",
"q. c #E7C549",
"w. c #F4C242",
"e. c #F9C543",
"r. c #FDCB43",
"t. c #F3C34A",
"y. c #F5CA4D",
"u. c #FCCC4B",
"i. c #FAC649",
"p. c #FDD344",
"a. c #FDD34B",
"s. c #FEDB4C",
"d. c #F7D54A",
"f. c #ECC25D",
"g. c #ECC355",
"h. c #F1C451",
"j. c #F5CB53",
"k. c #F9CE55",
"l. c #F0C35C",
"z. c #F4CC5B",
"x. c #FACF5A",
"c. c #FED353",
"v. c #FDDA53",
"b. c #F5D25D",
"n. c #FDD45A",
"m. c #FEDC5B",
"M. c #F7D354",
"N. c #EFD450",
"B. c #FDE053",
"V. c #FDE05B",
"C. c #DCC66A",
"Z. c #DFC378",
"A. c #EDC263",
"S. c #EDC46A",
"D. c #E7C568",
"F. c #F1C564",
"G. c #F3CB64",
"H. c #F3CA6B",
"J. c #F8CF64",
"K. c #F4D263",
"L. c #FBD463",
"P. c #FEDA65",
"I. c #F4D36C",
"U. c #FEDB6B",
"Y. c #F9D76B",
"T. c #E5C374",
"R. c #EDC472",
"E. c #E4C37D",
"W. c #EAC47B",
"Q. c #E9CD74",
"!. c #F3CC73",
"~. c #F1CC7F",
"^. c #EDD477",
"/. c #FAD672",
"(. c #FEDD73",
"). c #F3D47D",
"_. c #FCDD7B",
"`. c #F7D578",
"'. c #EFD56F",
"]. c #FFE165",
"[. c #FFE46D",
"{. c #FDE474",
"}. c #FDE37B",
"|. c #FFE97C",
" X c #EBCE8B",
".X c #E6CA86",
"XX c #F0CF87",
"oX c #EDD687",
"OX c #F3D384",
"+X c #FBDD82",
"@X c #F1D58C",
"#X c #F6DA8C",
"$X c #F9DD89",
"%X c #F6DB83",
"&X c #EACF95",
"*X c #ECD394",
"=X c #ECDA9A",
"-X c #F5DC94",
";X c #F4DE9C",
":X c #F3D995",
">X c #FDE284",
",X c #FEEA84",
"<X c #FEE48B",
"1X c #FEEC8B",
"2X c #F2E38D",
"3X c #FDE593",
"4X c #FEEB94",
"5X c #FBE39B",
"6X c #FEEA9B",
"7X c #F5E597",
"8X c #FEF197",
"9X c #EFE291",
"0X c #F3DDA5",
"qX c #ECD5A0",
"wX c #FAE5A4",
"eX c #FDEAA3",
"rX c #F4E3AD",
"tX c #F9E7AE",
"yX c #FEEBAB",
"uX c #F7ECAA",
"iX c #FEF2A3",
"pX c #F5E6B4",
"aX c #FDEDB4",
"sX c #F5EBBA",
"dX c #FDEEBB",
"fX c #F7EAB1",
"gX c #FDF5B5",
"hX c #FEF4BB",
"jX c #FEF8BC",
"kX c #F6EDC2",
"lX c #F9EEC1",
"zX c #FEF4C2",
"xX c #FDF5CA",
"cX c #FDF8CF",
"vX c #FCF6C4",
"bX c #FEFAD1",
/* pixels */
"                                          >X>X<X,X>X{.{.Y.                                          ",
"                                  <X6X6X8X7X2X).^.^.'.'.Y.Y.U.P.L.                                  ",
"                              6XiX6XoXC.0.0.0.q.q.q.] :.y y C q.u.a.n.                              ",
"                          6XiX9XC.0.q.N.N.B.B.v.V.v.s.p.p.p.T S t d J u.n.                          ",
"                      <X8X2XC.0.N.V.B.{.V.B.s.m.{.K.a.p.p.v.a.i.Y G d w >.L.I.                      ",
"                    6X6XC.] N.B.B.B.].1X,XK.p.b.{.[.h.Y a.v.d.F L P U F a -.`.#X                    ",
"                  8X2XX.q.B.[.V.m.N.K.,X,Xj.Y a.b.y.L T A r.T G G U r.I I f ^ #XwX                  ",
"                6X^.] d.s.v.,X4X'.R p.K.q.q.P T I S F L L J V D F i.n.x.Z F h ^ *XaX                ",
"              4X^.[ r.p.p.b.>X,XI.r.Y I L L U r.r.Y U L G F G x F >.J.H.D h D h 4 &XtX              ",
"            1X^.y d.v.v.j.Y d.G.I L P u.n._.1X1X1X>X}.U.n.i.J z k H M M v H !.4.p 3  X;X            ",
"          >X`.[ T p.{.,Xz.P P J L u.}.8XiX8X1X1X|.{.[.].m.v.u.e.F h f f N ~.dX0X3.9 3 ).).          ",
"        /.{.[ F P r.(.{.K.I L Y (.eXiX8X1X1X|.{.{.P.m.v.a.a.Y Y U z f s i S.tX#Xn 9 - 3 Y.A.        ",
"        {.1.j P P I w.h.A x i.<XiX8X1X,X,X{.,XuXuX=X^.a.Y Y P P L L l u 9 @.@._ 8 8 0 % r k.        ",
"      Y.b.t U U j.G x D z i.4X8X1X,X1XiXuXuXgXhXjXzXvX6Xr.P L L L G x l 9 8 8 8 n v +.& X J h.      ",
"      P.m j I M.n.i.L z >.<X4X,X|.,XfXgXgXgXgXjXjXjXvXcX`.L L z F z z k h 8 8 = M u.K 0 o , w.      ",
"    L.y.w x G k.a.A B F +X1X{.[.].oXgXgXgXgXjXjXzXzXzXxX:Xz z z k l k h h i & 8 M T F = & . f =.    ",
"    b.B s x F Z Z f k G.,X[.].m.N.=XjXhXhXjXzXzXzXjXhXxXXXl z A *.Z u i p i = = * - = % & X + &.    ",
"    d.- h l D h f s H _.].m.v.a.d.rXvXjXzXzXzXzXzXdXaXdX8.l F.#X3XOXD.%.i 9 8 O O O % & & % . a     ",
"  x.I - l H J D f p F.[.v.a.p.Y r.yXcXzXzXzXhXdXaXyXyX0XC f.3X}.U.P.P._.-.8 8 o & & = u 0 = . = ^   ",
"  k.B > b U r.w.a N Y.a.a.Y Y U P K.hXxXzXdXaXyXeX5X6XD.-.%X(.n.c.u.i.n.f.= 8 = % & 0 i 8 O o X e   ",
"  n.t 9 s >.i.&.9 $.P.Y U P P P G x h.rXdXaXeX3X<X>X%X%.K.U.c.r.r.U U w.4.= & & X & = + & o @ . 6   ",
"  L.3 9 s n 0 6 8 4.u.P P U J.-X@XD.C %.XXeX3X>X_._.3.;.P.u.r.U K D l H 5.8 & & X 8 8 O + 8 # X 1   ",
"S./.3 8 9 0 8 8 8 l.r.L U ).lXlXdXaX;XT./ 3.)._.U.K.+.j.r.U G F D f s c 8.O.O & X = # 8 9 9 i o : Q ",
"!.#X3 8 q !.4.@.= l.P x h.sXaXyX6X3X<X<X`.1.r 1.L.=.*.i.K F D f s 0 0 2 #.5.& & X 8 i i 9 s i + : ( ",
"XX;X< 0 9.aXtX! 8 4.G l S.aX6X3X>X_.(.U.P.P.j.m ' X.h.J V f a 0 0 : : * O.6.* & X # s 0 = - p @ > ( ",
"XXrX< & ,.0XqX@.& 2.G F ~.eX>X_.(.P.n.c.u.r.u.j.^ / e +.&.n 0 0 : 2 0 6 ,.6.= 8 o u p # 9 w k # v } ",
"XXfXQ O * ,.* * & 2.l h !.4X(.P.n.c.u.r.U L w.%.4 &.e < 5 ) @.q 4 q n ,.9.! 8 9 , p k k g f k g Z ..",
"  fXQ X & : & & & ,.D p &.+XP.a.u.r.U G G J -.3 / n n ^ 7 < !  .4.8.9.T.,.8 9 h + k z l z L L f J ..",
"  wX} X & 4.4.,.% O.Z p i 2.n.r.U G F l N -.e 3 O.: 0 q @.,.! : 6 | | n 9 p h f - z L T G L L j w.  ",
"  -X .X 2 F.U.2.= q $.9 9 4.k.U G l b s $.) 1 ) q 2 2 q O.5.S.8.0 9 i s h h x j g L I Y L A T j t.  ",
"  ).f.$ 2 &.i.M = = &.9 8 4.L.D N s 0 n ,.* ! @.q 6 @.#.-.5.S.#X!.h h l x G L d V P G G j I I J =.  ",
"  S.z.$ @ = 0 = 8 8 m c = 0 8.2.$.n @.5.! * ) @.@.#.-.4.8.H.!.$X-XH z G G L L w Y Y e.*.*.t.w.D ..  ",
"    k., @ # 8 9 s 0 i O.8 = : ^  . . .7 o 1 8.,.-.4.8.H.!.`.+X<X7X*.L P Y Y B S a.c.i.n.n.n.&.Z     ",
"    h.b + # i h l u i b 2 O & & % % % & & ! R.4.F.H.`._.+X+X<X<X-Xw.P Y R T r M.j.>.$.P.(.I.v /     ",
"    1.F + u i j p u u p v * O & & O & 8 8 4.OX!.`._.+X+X<X<X<X6X^.Y Y p.p.r z.P.2.9 9 #._.3.0 Q     ",
"      *.# 9 g u # 9 p k l 0 & O & = 8 8 9 -.;X$X+X+X<X3X4X5X6X@Xy.p.p.p.y 3.(._.l.q 2 ).#Xe 6       ",
"      _ f + p k u p z b l z 0 = 8 9 9 s i h f.7X6X5X6X2XQ.Q.D.d.d.s.a.[ D.>X<X%XOX#X9.;X8.: Q       ",
"        %.- # z z l s : s F G a 9 s f h l z G t.Q.~.D.y.Y p.p.s.s.N.[ T.<XA.4.,.5XyXyX*X3 7         ",
"          c o p L z : o = D U T B s f G G G L P P Y R p.s.s.s.N.q.X.@X6XeX9.O * ~.aXpX| 3           ",
"          ` : , x L c , a Y r.w.u.i.C B D L Y Y R p.p.s.d.N.] X..X7XyXyXwX8.2 ) &XsX6.; Q           ",
"            ` % - L Y e.>.i.i.J i.x.P.J.f.<.=.:.:.:.] X.7.Z.:XwXgXOX8.W.0XlX=X&XxX9.3 Q             ",
"              ! ; > i.v.n.j.J L >.Y._.P.>X>X$X#X#X:X;XwXyX5XaXdXaXR.: 6 rXxXxXxX.X6 !               ",
"                ( > t z.U.(.k.>.2.+X+Xe.t.R.6XyX-X#XdXaXaX8.R.=X0X9.6 _ *XcXlX9.e (                 ",
"                  ` M v F.+X`.$X$X$XF.D i R.yX@X5.@.@XpX9.: ; 9.xXzX.XpXxX0XX.+.(                   ",
"                    ..*.J f.#X6XeXyX;X,.,.W.pXE.& & 9.xX0X^ ^ .XcXcXxXkX.X=.' {                     ",
"                        ;.T *.S.;XaXdX:XlXlXxX0X! ) qXcXcX XpXsXcXsX XX.=...                        ",
"                          ..;.A M 3. XrXlXxXcXkXkXkXkXcXcXkXsX=XT.<.' X.{                           ",
"                              o.@.n q q ) 6.9..X.X&X.XE.9.X.' / ' ..~                               ",
"                                    Q Q 7 1 1 : 1 2 4 e ` ` } {                                     ",
"                                              W E E E                                               "
};
