/* XPM */
static char *open1652478404[] = {
/* columns rows colors chars-per-pixel */
"50 50 253 2 ",
"   c #000B0C",
".  c #020407",
"X  c #000A13",
"o  c #041518",
"O  c #131215",
"+  c #1A151C",
"@  c #181210",
"#  c #380D00",
"$  c #371402",
"%  c #2F0F00",
"&  c #00221E",
"*  c #1D241D",
"=  c #2E2A1B",
"-  c #051D28",
";  c #161A25",
":  c #002423",
">  c #06252A",
",  c #1A2827",
"<  c #1C2A34",
"1  c #143634",
"2  c #242C2B",
"3  c #2A2E2E",
"4  c #252925",
"5  c #332C23",
"6  c #352C29",
"7  c #392927",
"8  c #26302E",
"9  c #2B322D",
"0  c #243226",
"q  c #262E32",
"w  c #2B2D31",
"e  c #262B38",
"r  c #243132",
"t  c #2B3233",
"y  c #2A3339",
"u  c #353539",
"i  c #303032",
"p  c #271E31",
"a  c #461906",
"s  c #511F0D",
"d  c #751D00",
"f  c #4C230C",
"g  c #48230C",
"h  c #54260C",
"j  c #4C2212",
"k  c #452814",
"l  c #522714",
"z  c #563219",
"x  c #6C2603",
"c  c #7B2B03",
"v  c #782604",
"b  c #7B3209",
"n  c #673315",
"m  c #783517",
"M  c #493329",
"N  c #713A23",
"B  c #34433C",
"V  c #77462A",
"C  c #724E34",
"Z  c #78471E",
"A  c #273745",
"S  c #1C3742",
"D  c #115452",
"F  c #304B50",
"G  c #395A66",
"H  c #1C7A75",
"J  c #1D7877",
"K  c #186B6B",
"L  c #3C676A",
"P  c #247574",
"I  c #32716D",
"U  c #3B674E",
"Y  c #4D5750",
"T  c #6C5B49",
"R  c #756857",
"E  c #4C5C63",
"W  c #47676D",
"Q  c #497777",
"!  c #55767A",
"~  c #516D70",
"^  c #697A75",
"/  c #5F6656",
"(  c #841C00",
")  c #822501",
"_  c #842B01",
"`  c #8A2B01",
"'  c #852908",
"]  c #932D07",
"[  c #883408",
"{  c #93340C",
"}  c #9D390D",
"|  c #963A08",
" . c #863916",
".. c #983C15",
"X. c #A43D16",
"o. c #A1380D",
"O. c #893C20",
"+. c #8A411B",
"@. c #96451A",
"#. c #A7471B",
"$. c #B04A12",
"%. c #8C4222",
"&. c #854727",
"*. c #974927",
"=. c #8A4F32",
"-. c #985736",
";. c #925533",
":. c #A64926",
">. c #A9552C",
",. c #B35726",
"<. c #A95933",
"1. c #B65B35",
"2. c #B8642D",
"3. c #A96236",
"4. c #B96739",
"5. c #99683F",
"6. c #C36B3C",
"7. c #C76739",
"8. c #CF6B36",
"9. c #EA7F3B",
"0. c #925C47",
"q. c #AA5E45",
"w. c #906A51",
"e. c #A96648",
"r. c #BC6C43",
"t. c #B66946",
"y. c #B77652",
"u. c #B1744E",
"i. c #A77B66",
"p. c #83776B",
"a. c #C46C42",
"s. c #CA6C42",
"d. c #C96B4A",
"f. c #CC724A",
"g. c #C77648",
"h. c #D27444",
"j. c #D3754A",
"k. c #D97848",
"l. c #CA7954",
"z. c #D37C54",
"x. c #D67C5A",
"c. c #D36D44",
"v. c #E37E51",
"b. c #CE7A63",
"n. c #54827B",
"m. c #6F827B",
"M. c #BF8357",
"N. c #B48B72",
"B. c #848E73",
"V. c #D9844D",
"C. c #CA8258",
"Z. c #D98659",
"A. c #C8814D",
"S. c #EA864B",
"D. c #ED8A4C",
"F. c #E98645",
"G. c #F6894A",
"H. c #E4845B",
"J. c #EA8A5D",
"K. c #E68856",
"L. c #F38C5A",
"P. c #F48B54",
"I. c #E6935A",
"U. c #F69459",
"Y. c #FA904D",
"T. c #D88865",
"R. c #D5926A",
"E. c #EC8C63",
"W. c #E88A65",
"Q. c #EE9263",
"!. c #E69667",
"~. c #F49465",
"^. c #F1946B",
"/. c #DBA67B",
"(. c #FEAB6B",
"). c #FFB06D",
"_. c #FAAB75",
"`. c #FFB479",
"'. c #EBA26A",
"]. c #527B81",
"[. c #657C82",
"{. c #3D9891",
"}. c #59868A",
"|. c #5A8D96",
" X c #499699",
".X c #58969A",
"XX c #4E908F",
"oX c #669898",
"OX c #75999A",
"+X c #6A898D",
"@X c #7AA29F",
"#X c #5899A3",
"$X c #499CA2",
"%X c #669CA6",
"&X c #7498A3",
"*X c #59A5A8",
"=X c #57ADAF",
"-X c #67A6A7",
";X c #73A4AE",
":X c #68ADB7",
">X c #76ABB3",
",X c #67B5B9",
"<X c #76B8BB",
"1X c #70B3A8",
"2X c #78C1BD",
"3X c #67C0BC",
"4X c #79BDC4",
"5X c #6ABCC2",
"6X c #6EC4C8",
"7X c #78C4C7",
"8X c #7DD1D5",
"9X c #859690",
"0X c #BA9C89",
"qX c #86ABAC",
"wX c #88B6B9",
"eX c #94B0AE",
"rX c #ABB9BA",
"tX c #83A2A1",
"yX c #D3A893",
"uX c #FFB985",
"iX c #DABBAA",
"pX c #98C2BD",
"aX c #EACAB9",
"sX c #EBC7A3",
"dX c #87BDC4",
"fX c #92BAC4",
"gX c #AFBEC4",
"hX c #88C6C7",
"jX c #93C4C5",
"kX c #87CCD5",
"lX c #84DBDB",
"zX c #8ADCDB",
"xX c #86D5D5",
"cX c #97D7D9",
"vX c #B2CDD0",
"bX c #84E0DD",
"nX c #8EDFE2",
"mX c #8FE2E1",
"MX c #A1E7E5",
"NX c #CBCBCD",
"BX c #C7CDC7",
"VX c #CBD0D2",
"CX c #EBD4C4",
"ZX c #F8E8D9",
"AX c #DAE8EA",
"SX c #FFF7EA",
"DX c #EBFAFA",
"FX c #FEFBF4",
"GX c #F5FDFC",
"HX c #FDFEFE",
"JX c #F8F7F7",
"KX c #F7EEE8",
"LX c #CBDEE4",
/* pixels */
"JXHXJXHXJXHXHXHXJXHXHXJXHXGXHXHXGXrXtX2XXXD K K K D U = g +.*.3.b +...q.CXSXJXHXJXJXHXHXJXHXGXGXHXHX",
"HXHXHXHXHXHXHXHXJXJXHXGXGXDXLX}.! Q n.n.-XzX<X7XwXeXB.w.M.!._.R._ d.T.*.N 0XKXJXJXHXGXHXHXHXHXGXHXHX",
"HXJXHXHXGXGXHXJXJXJXLXgX;XU I 1X-X>X1X1X:XdXcXoXm.C e.C._.`.I.4.( s.W.:.' e.w.iXFXHXHXHXHXHXHXFXFXFX",
"HXHXHXJXHXHXGXHXDXeX].L XX<X2XhX7X%X|.qX[.G [.Y z y.Q.U.I.A.D.8.` s.H.@...^.e.M p.VXGXHXFXFXFXFXFXFX",
"JXHXHXHXJXHXGXvXQ ].lXlX,X.XoX&X&XfXG < S ; O $ x g.F.).Z.c I.8.] s.W.#.[ I.3.n R / 9XDXHXHXSXHXFXHX",
"GXJXHXSXHXAX+XQ :X:X=X=X7XoX~ E > - < , p M M z A.Y.F.'.I.+.K.h.( 7.W.#.@.I.2.b z B.n.Q rXJXFXJXHXHX",
"GXHXJXHXrXL .X<X#X%X#X%X}.F ; o 0 0 2 3 A 7 l x V.F.U.).4.' J.k.( k.v.:.| K.h._ h w.qX;X].].DXJXHXHX",
"FXJXJXLX^ F MX7X:X;X[.F - , y y t 0 9 9 p l m x.D.D.).'.@. .~.8.] d.v.:.[ ~.8.) y.T m.cX,XD vXDXHXHX",
"GXDXGXE L cX#X%XfXW < ; u u , y r 0 r 4 5 k n Q.Y.9.).'.@.b D.8.` s.Z.@...^.s.` C.&.R OX,XkXo LXGXDX",
"GXGXE Q 4X%X|.%X[.- + u 3 t y 2 1 < w 6 = f +.F.F.Y.).'.3.+.I.A._ 4.V.@...W.c.) k.*.T +X#X:X>XF VXGX",
"KXrXU .X8X:X4X&X- 4 i 6 4 0 q y e A e 7 l &.S.Y.G.).V.2.,.+.K.6._ 6.V.$.{ E.j.' h.Z.V / <X5XxXG +XNX",
"DX, 1X7X$X4X%XS ; 3 i 4 9 8 2 y < A e 7 h %.U.F.F.).I.6.1.{ Q.6.c 6.D.$.{ E.c.( 8.V.Z T qX<X$XMX1 +X",
"DX> =X2X X-X}.X u 4 0 0 0 t q < e e q 6 h  .D.G.I.uX!.d.1.{ W.d.v 7.S.$.o.J.7.[ k.Z.-.$ 2 oX.XcX1 OX",
"].XX1X=X*XXXA ; 4 i 9 4 2 8 q q y q 2 6 h +.U.F.2.<.>.:.] ] v.d.' j.K.o.} E.s._ 8.K.*.# 4 ;X*X5Xn.n.",
"X dXzX6XxX}.. u w 2 2 t 3 3 w e 3 3 q 3 g +.V.} 7.f.d.a.,.| :...d >.7.@.@.J.4.[ h.Z.*.$ y hX7X7XMXI ",
"> 4X,X X1XQ   w w y q q 3 w w i 6 3 3 6 k &.k.( E.j.f.C.Z.g.l.z.<.>.<.[ ) 4.@.x g.l.*.$ , -X-X$XbXH ",
"o 4X=X X*XL   3 w w w r 3 3 w w 3 i 2 5 k &.v.c.,.] c -.y.t.e.T.C.l.T.l.t.1.t.[ @.*.b $ 3 +X#X.XlXJ ",
": 4X8X:XdX}.. t w w w w 8 r w w w w 2 5 j %.~.v.v.,.+.b v x x <.>.*.l.f.l.Z.C.C.f.l.q.N Y eX>X,XbXJ ",
"& <XkX4XdX}.. 9 w w w r w 3 w w w t 2 = j O.L.P.G.uXI.3.:. .1.v d v [ ..' @.l.t.d.x.R.0.Y eXfX:XbXP ",
"& 7X:X X%XW   9 w w r w 8 8 w w e r 3 7 s ..L.v.G.(.I.4.1.{ I.6.v r.>.v '  .c b ) :.e.V u &X|.#XlXJ ",
"o 2X3X$X*XI X 9 i w w q 9 w w w q q 3 5 h %.L.G.F.).'.y.>.{ E.4.c a.W.....Z.%.c :.' x a , %X*X$XbXH ",
": 2XlX6XkX+Xo i i 6 w q 8 r w w w q 0 5 j %.L.G.D.`.I.u.O. .I.6.c a.Z.#...Q.r.v H.l. .% y fX4X5XbXH ",
": <X4X*X;X! . i w 3 e q 3 3 w w 3 w 2 = f +.L.G.D.`.C.;.=.O.T.a._ 7.J.#.} !.4.c f.x.*.a 2 qX;X#XbXH ",
": 4X:X.X%XW   9 w w q q 8 3 w w 2 w 2 5 g &.L.P.D.uX0.w.N.N R.r.) s.J.:.| E.4.c j.T.*.a 4 &X|.#XlXH ",
"o 7X6X=X4X].o 2 w i w q 3 3 w w w 3 0 5 f &.P.Y.D.uXM.T w.Z R.a.c 6.J.,.} H.a._ j.W.;.% q dX5X=XbXJ ",
"& 2X8X5X8X|.  8 i w w q r 2 w w w 3 8 5 f %.P.G.S.`./.C z Z !.f.` 6.J.#.o.L.s._ c.x.;.# r hX5X5XnXJ ",
": 2X,XXX%XW   i w w w q w w w r r 8 3 7 j %.P.G.D.`./.T h O.W.h.` 7.H.X.} Q.a.[ j.x.:.a 4 &X|.#XlXJ ",
"& 2X<X#X;XW   3 w w r q 3 3 w r r r w 7 s +.G.G.F.`.R.;.n  .K.k.` c.v.X.} E.4.' j.v.O.# 4 &X.X#XbXJ ",
"o 7XnX5XkX|.  9 w i w q 3 8 w w r < q 7 s %.P.G.D.`./.V f +.J.9._ s.J.X.o.J.4._ j.v.*.# u jXkX6XbXJ ",
": 4X6X$X<XQ   9 w 6 w q r 8 w r r r w 7 j %.P.G.F.uXM.C C V W.c._ s.J.#.} J.7._ j.W.-.# , qX-X=XbXH ",
": 2X:X$X-XL   9 w w w r 8 3 w w r r q 6 j %.L.D.D.uXw.R 9XC T.s.` s.E.#.} J.7._ c.H.:.a * oX.X$XlXH ",
": 2X7X*X<X!   i w w w r w 3 w w w 2 q 6 g &.L.Y.D.uXi.0.w.V W.s.' d.v.#.o.E.g._ j.H.*.# 2 qX>X=X8XH ",
": 4X8X3XhX}.X w w w r 3 3 w w w 2 y w 6 j O.L.P.S.uXR.-.%. .^.7.c 4.J.....~.7.c 8.z.*.# 3 pX4X6XnXJ ",
"- 7X,X{.*XL X u w r r 8 6 w w w q y 2 5 j +.D.G.D.`.T.g.2.| Z.h.c 6.x.#.X.v.1.[ V.k. .a = OX|.$XzXP ",
"- dX,X X-XW X e w w 8 8 w w w r 0 2 3 5 h %.P.Y.V.).!.4.>.[ I.k.` s.Z.#.X.W.#.d ,.1.:.N z m.@XXXzXP ",
"- 7XxX3XjX[.X u w w r 3 w w r 8 9 2 6 = f  .D.F.D.`.I.g.<.{ Q.7.( s.t.' ' 1.1.r.1.d.x.b.C 6 eXhXzXH ",
"- 5X2X*X1XQ . y w w r r 3 q r 8 3 4 8 5 h  .U.Y.F.uX'.3.@._ 6.$.o.#.4.A.C.l.l.l.b.T.y.q.w./ OXoXzXP ",
"> 4X,X X-XW X y q w w r w r r r q 2 t 5 f @.~.9.2.2.>.+.1.>.1.j.v.k.C.y.t.l.T.@. .O.N a M 9XoX XxXH ",
"- 6X6X*X1XQ X q q q 8 r w r r 8 q w q 6 f  .v.o.8.2.4.l.T.x.f.T.4.<.u.3.v c [ v c m N # 2 qX-X=XxXP ",
": 4XxX3XxX+X  y w y r w w w r r q e q 6 l %.v.( D.A.A.R.t.:.>.*.v x x x b *.[ _ z.b.=.% r jX4X6XmXI ",
"& <X-X.XoXL X e q w e p i w q e q y 2 6 j O.J.8.,.[  . .' d c v d q.d...#.^.6._ j.T.;.$ , OX|.|.cXP ",
"o pXhXoXqX~ X u w w i i i i w 3 u r i 6 s %.L.P.9.,. .m b ..x.a.d d.^.:.{ E.j.` j.Z.=.$ = tXtX&XcXI ",
"OX~ F A F r . O O @ + @ O O O o O o O % #  .J.F.D.`.!.C.<.{ J.f.' 7.v.X.X.v.s.) z.l.V $ @ u F F G [.",
"GXNXvXNXBXNXNXVXNXNXNXNXNXNXNXBXBXVXBXBXN.c P.Y.F.`.Z.t.1.{ !.k.` c.x.X.X.^.d.d q.0.N.CXBXBXgXNXvXAX",
"HXHXHXJXHXHXHXHXHXHXHXHXHXHXHXHXGXHXGXFXiXb P.G.S.).I.r.,.` Q.8.( 8.Z.@.+.C.=.i.i.aXSXFXFXHXHXHXHXHX",
"HXHXJXHXHXFXHXJXHXHXHXHXHXHXHXGXJXJXHXSXyX[ U.G.D.`.I.r.1.{ J.8.] z.A.V V w.iXSXSXFXFXHXHXGXHXJXJXHX",
"HXHXHXHXHXFXGXHXHXHXHXHXHXHXHXHXHXGXHXJXyXc L.P.D.`.Z.4.1.{ I.s.x &.w.0XZXZXFXHXHXJXHXHXGXHXHXHXHXHX",
"HXHXHXHXHXGXGXHXHXHXHXHXHXHXHXHXHXGXHXJXyXm U.S.S.`.T.u.*. .b.=.N.0XCXFXFXHXJXHXHXHXHXHXHXHXHXHXHXHX",
"HXHXHXHXHXHXHXHXHXHXHXHXHXHXHXHXHXGXHXHX0Xn ~.D.P.`.!.0.;.0.w.aXHXHXFXFXHXHXHXHXHXHXHXHXHXHXHXHXHXHX",
"HXHXHXHXHXHXHXHXHXHXHXHXHXHXHXHXHXHXJXFXCXe.7.2.,.8.3.-.yXSXSXGXHXHXHXHXHXHXHXHXHXHXHXHXHXHXHXHXHXHX"
};
