/* XPM */
static char *player1652478404[] = {
/* columns rows colors chars-per-pixel */
"50 50 242 2 ",
"   c #030101",
".  c #0B0200",
"X  c #0B0809",
"o  c #120200",
"O  c #1A0300",
"+  c #1C0D02",
"@  c #150D0A",
"#  c #191106",
"$  c #19130C",
"%  c #090317",
"&  c #1A1A1A",
"*  c #161516",
"=  c #1D0713",
"-  c #230102",
";  c #2B0301",
":  c #220B00",
">  c #2C0903",
",  c #330000",
"<  c #3B0100",
"1  c #3A050B",
"2  c #241205",
"3  c #2C190B",
"4  c #281709",
"5  c #371604",
"6  c #281713",
"7  c #351E16",
"8  c #31071D",
"9  c #1E201F",
"0  c #3B230C",
"q  c #38240D",
"w  c #2C2419",
"e  c #2B2215",
"r  c #3D2916",
"t  c #040222",
"y  c #070828",
"u  c #02003E",
"i  c #0D0733",
"p  c #1E0835",
"a  c #150E2B",
"s  c #260726",
"d  c #280E33",
"f  c #2D2B29",
"g  c #373635",
"h  c #302B2E",
"j  c #440000",
"k  c #4C0101",
"l  c #530202",
"z  c #5D0000",
"x  c #520C0C",
"c  c #5A1C0F",
"v  c #491413",
"b  c #591A14",
"n  c #680404",
"m  c #740201",
"M  c #7C0301",
"N  c #6E1416",
"B  c #4B2305",
"V  c #4A260B",
"C  c #46250D",
"Z  c #4A320E",
"A  c #412614",
"S  c #472915",
"D  c #493519",
"F  c #523B1B",
"G  c #510831",
"H  c #6E1726",
"J  c #572828",
"K  c #4F3830",
"L  c #742E2E",
"P  c #584428",
"I  c #4B433D",
"U  c #584833",
"Y  c #644C2A",
"T  c #674838",
"R  c #725937",
"E  c #796739",
"W  c #04004B",
"Q  c #190248",
"!  c #050157",
"~  c #150553",
"^  c #1D1751",
"/  c #35004C",
"(  c #260749",
")  c #343259",
"_  c #050369",
"`  c #16006D",
"'  c #030275",
"]  c #030279",
"[  c #100B71",
"{  c #260361",
"}  c #353369",
"|  c #450D4E",
" . c #620B42",
".. c #3F4344",
"X. c #474546",
"o. c #524E45",
"O. c #5F594C",
"+. c #54544C",
"@. c #535353",
"#. c #5A5B5B",
"$. c #5C5857",
"%. c #6E4545",
"&. c #675A4B",
"*. c #675958",
"=. c #7A5353",
"-. c #66614E",
";. c #756043",
":. c #6C635E",
">. c #585865",
",. c #464474",
"<. c #6B6B6B",
"1. c #666564",
"2. c #776767",
"3. c #737374",
"4. c #7C7C7A",
"5. c #6D6D79",
"6. c #830100",
"7. c #8C0100",
"8. c #820D0E",
"9. c #940000",
"0. c #990909",
"q. c #8A181C",
"w. c #9B1615",
"e. c #AA0401",
"r. c #A70706",
"t. c #B81B1A",
"y. c #A71413",
"u. c #B6201F",
"i. c #89132D",
"p. c #AB1722",
"a. c #8B342E",
"s. c #883D3C",
"d. c #902A2F",
"f. c #A82928",
"g. c #B62423",
"h. c #A82A34",
"j. c #C80807",
"k. c #DB0E0E",
"l. c #DD110E",
"z. c #C91919",
"x. c #D41313",
"c. c #D61415",
"v. c #EE0606",
"b. c #E30C0B",
"n. c #EB090A",
"m. c #F30404",
"M. c #C41B22",
"N. c #82641C",
"B. c #82583F",
"V. c #80643D",
"C. c #A72B43",
"Z. c #895B5C",
"A. c #887053",
"S. c #876666",
"D. c #977575",
"F. c #A67070",
"G. c #8B8378",
"H. c #A58E6B",
"J. c #AB9579",
"K. c #AF9275",
"L. c #040595",
"P. c #1C0293",
"I. c #0E0A8B",
"U. c #0F0BAC",
"Y. c #1408A8",
"T. c #0A0ABC",
"R. c #0908B7",
"E. c #100DB2",
"W. c #2D2D83",
"Q. c #7A7A8F",
"!. c #64649E",
"~. c #0809C3",
"^. c #0807CB",
"/. c #0404D7",
"(. c #0202E3",
"). c #0202ED",
"_. c #0001F2",
"`. c #7E8283",
"'. c #898887",
"]. c #949595",
"[. c #988790",
"{. c #AC9792",
"}. c #B9A588",
"|. c #A9A695",
" X c #A09FAD",
".X c #9DA1A2",
"XX c #A9A8A9",
"oX c #BBBCBB",
"OX c #B3B4B4",
"+X c #B6B1AC",
"@X c #9797BB",
"#X c #D18A8B",
"$X c #C4AA83",
"%X c #CBB293",
"&X c #D5B996",
"*X c #C7B193",
"=X c #C1BDBA",
"-X c #DABDBC",
";X c #D8B2A8",
":X c #EDA9A9",
">X c #EFAFAF",
",X c #E49898",
"<X c #DAC29E",
"1X c #EAC896",
"2X c #F3CF9E",
"3X c #F3D19D",
"4X c #D9C5AA",
"5X c #EED1A7",
"6X c #F5D5A5",
"7X c #F6D8AD",
"8X c #F6DCB5",
"9X c #E8CDA7",
"0X c #EDEFA7",
"qX c #F9E1B8",
"wX c #BBBAD9",
"eX c #C4C4C4",
"rX c #CACAC9",
"tX c #D8C7C7",
"yX c #D1D1CF",
"uX c #D3D3D3",
"iX c #DDDDDC",
"pX c #DDD9D6",
"aX c #C3C4DC",
"sX c #E8CAC9",
"dX c #E1D9D9",
"fX c #FFD1D0",
"gX c #EBE6D2",
"hX c #DDDDEC",
"jX c #E4E4E5",
"kX c #ECECEB",
"lX c #E4E3EC",
"zX c #F2EEEC",
"xX c #F8E8E8",
"cX c #F4F1EE",
"vX c #EAEAF2",
"bX c #F6F6F6",
"nX c #FCF4F5",
"mX c #FCF8F6",
"MX c #F6F6F8",
"NX c #FDFDFD",
"BX c #F8F8F8",
"VX c #F0F0F2",
/* pixels */
"bXbXbXbXbXbXbXbXbXbXbXbXbXbXBXbXbXbXbXbXbXbXNXNXNXNXNXNXNXNXbXbXbXbXMXMXbXbXbXbXbXbXBXbXbXbXBXbXbXbX",
"bXbXbXbXbXBXbXbXBXbXbXbXbXbXbXBXbXbXbXBXNXnXtX-X-X-X-X4X-XtXBXMXbXbXbXMXbXbXbXBXbXbXbXbXbXbXbXbXbXbX",
"bXbXbXbXbXbXBXBXbXbXbXBXBXbXbXbXbXbXBXjXpXsXk k k k k k k l tXcXbXbXbXbXbXMXbXbXbXbXbXbXbXbXbXbXBXbX",
"bXbXbXBXbXBXbXbXbXbXbXbXbXbXbXbXbXnXxXZ., l f.t.t.f.d.q.d.L 1 {.nXbXbXbXbXbXbXbXbXbXBXbXbXBXbXbXbXbX",
"BXBXbXbXbXBXbXbXBXbXbXbXbXbXBXbXbXxXH M t.j.b.l.z.f.k ; - , a.x Z.NXbXbXbXbXbXbXbXbXbXbXbXbXbXbXbXbX",
"bXbXbXbXbXbXbXbXbXbXbXbXbXbXzXmX-Xb w.x.n.n.v.b.r.z >XsXsX-Xk N J K xXbXbXBXbXbXBXbXbXbXnXbXbXBXbXbX",
"bXbXbXbXbXbXbXbXbXbXbXBXBXcXNX{.N 0.c.n.m.v.l.9.L :X>X:X>XfX< L J - mXNXVXbXBXbXbXbXbXbXMXbXbXbXBXbX",
"bXbXbXbXbXbXBXbXbXbXbXMXbXzXS.H r.c.m.m.v.b.z.n %.nX#X:X#X,Xk j k < %.sXBXNXcXbXbXbXbXBXbXbXbXbXbXbX",
"bXBXbXbXbXbXbXbXbXbXbXbXMXNX, M c.v.v.v.b.z.7.j v Z.J F.s.a.0.9.0.7.m B.Z.D.NXBXbXbXbXbXbXbXbXbXbXbX",
"BXBXbXbXbXbXbXbXbXbXbXNXxXF.N r.b.v.b.j.e.9.6.m n z z n z m z.x.x.c.M.7.n v '.iXBXbXbXbXbXbXbXbXbXbX",
"bXbXbXbXbXbXbXbXbXbXbXtXF.z z.b.n.b.e.9.9.9.k.c.x.z.z.z.z.z.x.k.b.l.c.c.z.h.O OXNXVXbXbXbXbXbXbXbXbX",
"bXbXbXbXbXVXbXbXbXkXNX2.j f.j.b.k.e.M 0.u.z.k.c.j.e.e.e.e.e.r.e.r.e.r.r.r.8.J eXBXVXbXVXbXcXcXbXbXBX",
"MXbXbXbXbXNXNXNXNXNXjX*.j f.M.t.0.n t.g.g.w.y.w.q.N c c c c b b b v ; v J %.NXNXNXNXNXNXNXNXNXNXNXbX",
"bXbXNXNXjX#.$.$.*.2.> ; k m 6.z 1 k m m z k j , 5 &.&.O.O.O.O.O.-.o.  X.<.@.<.<.<.<.<.<.<.<.<.<.OXNX",
"bXBX].3.3.1.1.1.K , n 7.9.M < ; 7 G.O %.:.o O . .                   '.  & 5.                    <.NX",
"bXBX3.X.<.NXNX{.J d.g.t.g.f.b : h OX<.'.].<.            . . .     X OX`.`..X3.*   X       X   X.OXBX",
"bXbXNXNXNXzXNX:., a.f.7.k , , : O   oX3.#.rX1.9           . J.$XA.r   ].]...rX3.h           ..iXNXbX",
"bXbXbXbXVXbXbXdXF.l l a.K.J.J.U $ $   '..X  rXo.      @ U J.6X6X6X4XD X +.rX  XX`.      @ @.NXbXbXBX",
"bXbXbXBXBXbXbXNXdXO A.%X;X;.6XY . K $   @ 4 + 4 w w e }.gXqX1X1X1X1X8XP 4 e   X & & 9 & '.NXbXbXbXbX",
"bXbXbXbXBXbXbXNXeX. %XqXH.O <X$XP + + . r 4X4XH.-.-.&.E E V.6X3X1X1X1XqX}.I 4.yXVXkXkXvXVXbXbXbXbXbX",
"bXbXbXbXbXbXbXNXoX  *X7X$XY E %X<XP Y Y A.7X8XP . o o + + : A.&X7X6XqXH.&.1.NXNXbXBXBXBXBXbXbXbXbXbX",
"bXBXbXbXbXbXbXBXuXo.A.%XqXqXP H.8X6X7X7X6X1X7XF . U D F F D o E K.H.H.P '.NXbXbXbXbXbXbXbXbXbXbXbXbX",
"bXbXbXBXBXbXbXbXBXNXI -.}.{.}.}.$X5X3X2X3X2X6XV.3 q Z Z Z Z F 2     f 4XNXcXbXbXbXbXBXbXbXbXbXbXbXbX",
"bXbXbXbXbXbXbXbXbXbXNXG.$ 4 2 2 F <X*X%X%X%X9X8XJ.4 r r r 0 0 r e g VXBXbXbXbXbXbXBXbXbXbXbXbXBXbXbX",
"bXbXbXMXbXbXbXBXMXMXbXbXkXcXzXnX+X. X % % = *X4X4X+Xs % X # # X 1.BXcXbXbXbXBXbXbXbXbXbXbXbXbXbXbXbX",
"bXbXbXbXnXBXbXbXBXMXbXMXBXBXnXNX;X- - s p t = > < < ( u ,.vXiXiXkXBXbXbXbXbXbXbXbXbXbXBXbXbXbXbXbXbX",
"bXbXbXbXbXBXbXbXBXbXbXbXbXcXNXD.n p.p.N p ( a G w.q.8 ( ^ } MXNXbXbXbXbXbXbXbXbXBXbXbXbXBXbXBXBXbXbX",
"bXMXbXbXbXbXbXbXbXbXMXbXbXzX&.b w.z.k.p. .( { / i.C.i.G ~ ~ } aXNXVXbXbXbXbXbXbXbXbXbXbXbXbXbXbXbXbX",
"bXbXbXbXbXbXbXbXbXbXbXbXNXNX8 b g.c.b.c.i.s P.P./ G C.d.| ~ ` W.@XNXVXbXBXbXbXbXbXbXBXBXbXbXbXbXbXBX",
"bXbXbXbXbXbXbXbXbXbXbXBXuX2.O < n 6.z.M.H p Y.Y.~ - z n | ` P.L.^ 3.NXNXbXbXbXbXbXbXMXBXBXbXbXbXbXbX",
"BXbXbXbXBXbXbXbXbXbXbXNXeX  *.3.S.Z.n H | ` U.I.h V.N.5 ~ U.^.E.) -.G.uXBXbXBXbXbXbXbXMXbXbXbXBXbXbX",
"bXbXbXbXBXbXbXbXbXbXNXrX4.#.BXNXNXNX2.s Q I.E.] @.0X0X+._ ^.).T.!.gX  OXBXbXbXbXbXbXbXbXbXbXbXbXbXbX",
"bXbXBXbXbXbXBXbXbXbXrX1.#.NXNXNXNXBXNX].) [ R.L.) |.|.) L./.).~.!.XX..].uXbXbXbXbXbXbXBXbXbXbXbXbXbX",
"bXbXbXbXbXbXbXbXBXBXX '.NXrXNXjXiXNXNXNXwXW R.R._ W u [ ~.(._.^.W % NXg @.NXVXbXbXbXbXbXbXbXBXbXbXbX",
"bXbXbXbXbXbXbXbXbXBX& ].uX  kX<.h NXjXlX XW R./.^.T.T.~.)._._.^.' i lXg #.NXVXbXbXbXbXbXBXbXbXbXbXbX",
"bXBXbXbXbXbXbXbXBXBX* '.uX  VX<.g NXh % y ! R.).)._._._._._._.^.[ y a   1.NXVXbXbXbXbXbXbXbXbXbXbXBX",
"bXbXbXbXbXbXbXbXBXBX* '.NXiXBXvXjXBXjX>.W U./._._._._._._.).(.T._ i vXg @.NXVXbXbXbXBXbXbXbXbXbXbXbX",
"BXbXbXbXBXbXbXbXbXVXyX1.@.NXNXNXNXNXmX5.W I.T././.(.(.(.(./.~.I.,.aXh ].iXMXbXbXbXbXbXbXbXbXbXBXbXbX",
"bXbXbXBXbXbXbXbXbXbXNXuX'.g X.X.X.I X.& % u ! I.R.~.~.~.~.U.! !.hXMXXXjXNXbXbXbXbXbXbXbXBXbXbXbXbXbX",
"bXbXbXbXbXbXbXbXbXbXbXNXjX'.X . = 2 : 6 6 9 p ~ _ I.] ] ' ! t X.XXNXNXMXbXMXbXbXbXBXbXbXbXbXbXbXbXBX",
"bXbXbXbXbXbXbXbXbXBXBXbXNXNXf . 6 4 4 4 3 A D = % t p s s s 6 O r '.kXbXbXbXbXbXbXbXbXbXbXbXbXBXbXbX",
"bXbXbXBXbXbXbXBXbXbXbXBXiX'.w + : : + - > S C 5 + 2 3 A Z V V D # X kXBXbXbXbXbXbXbXBXbXbXbXbXbXbXbX",
"BXnXbXbXBXbXbXbXbXbXbXNXoX. 0 S C V V B B B B V S A o 3 C B B S 4 6 kXBXbXbXbXbXbXbXbXbXbXbXMXMXbXbX",
"bXbXbXbXbXbXbXbXbXbXbXNXoX. C B B c B B B B B B B C o 3 C B B S # $ kXBXbXbXbXbXbXBXbXbXbXbXMXMXBXbX",
"bXbXbXbXbXbXbXbXbXbXbXNXoX. 0 B B B B B B B B B B C . 3 V V V 0 4 g zXBXbXbXbXbXbXbXbXbXbXbXbXbXbXbX",
"bXbXbXbXbXbXbXbXbXbXbXNXoX  7 S C C B C C V C C C 5 . 4 r 0 S + 1.NXbXbXbXbXbXbXbXbXBXbXbXbXBXbXbXbX",
"BXbXbXbXbXbXbXbXbXbXbXNX=X  . 3 S r A S A A r S 7 . . . o o . .XcXbXbXbXbXbXbXbXbXbXbXbXbXbXbXbXbXbX",
"bXbXbXbXbXbXbXbXbXbXbXBXVXyX*   . o . . . . .   K pXyXuXyXyXyXkXNXbXbXnXbXbXbXbXbXbXbXbXBXbXbXbXBXbX",
"bXbXBXbXbXbXbXbXbXbXbXbXBXNXrXoX=X=X=X=X=X4XoXoXyXNXNXNXNXNXNXBXbXbXbXbXbXbXbXBXbXbXbXbXbXbXbXbXbXbX",
"bXbXbXbXbXbXbXBXbXbXbXBXbXbXNXNXNXNXNXNXNXNXNXNXNXbXbXbXbXbXbXbXbXbXBXbXbXbXbXbXbXbXBXbXbXbXBXbXbXbX"
};
