/* XPM */
static char *emty1652478404[] = {
/* columns rows colors chars-per-pixel */
"50 50 216 2 ",
"   c #070000",
".  c #090000",
"X  c #1D0000",
"o  c #140A01",
"O  c #100600",
"+  c #230100",
"@  c #2C0100",
"#  c #2F0D00",
"$  c #340D00",
"%  c #330000",
"&  c #241400",
"*  c #2C1500",
"=  c #2C1B00",
"-  c #331600",
";  c #391400",
":  c #311900",
">  c #3C1A00",
",  c #342200",
"<  c #3D2207",
"1  c #21201E",
"2  c #262523",
"3  c #2A2927",
"4  c #2B2A28",
"5  c #4B0F00",
"6  c #441C00",
"7  c #4B1B00",
"8  c #441400",
"9  c #41270D",
"0  c #4F2900",
"q  c #562A00",
"w  c #502400",
"e  c #583100",
"r  c #642F00",
"t  c #673800",
"y  c #743C01",
"u  c #783B0D",
"i  c #7E3D13",
"p  c #7A3B17",
"a  c #7D3F24",
"s  c #713B21",
"d  c #76410B",
"f  c #76430A",
"g  c #754213",
"h  c #7A4314",
"j  c #77421F",
"k  c #7C441D",
"l  c #764A19",
"z  c #79491C",
"x  c #69452C",
"c  c #7C4524",
"v  c #7C4924",
"b  c #75442C",
"n  c #7B452B",
"m  c #7A4B25",
"M  c #7D502F",
"N  c #694C37",
"B  c #744C40",
"V  c #705649",
"C  c #813E0C",
"Z  c #823C12",
"A  c #893E1C",
"S  c #863D1B",
"D  c #873D27",
"F  c #8C4C02",
"G  c #83430C",
"H  c #8D4709",
"J  c #944A09",
"K  c #944B09",
"L  c #8F5009",
"P  c #945406",
"I  c #95550B",
"U  c #9C520C",
"Y  c #975C0E",
"T  c #9B5C0E",
"R  c #965805",
"E  c #824212",
"W  c #8C4D13",
"Q  c #82421C",
"!  c #854A1C",
"~  c #9C4E13",
"^  c #994D19",
"/  c #8D5413",
"(  c #8E5619",
")  c #955414",
"_  c #9A5313",
"`  c #985718",
"'  c #A15517",
"]  c #834123",
"[  c #85432B",
"{  c #884726",
"}  c #945C2C",
"|  c #865E3B",
" . c #876037",
".. c #AB7A27",
"X. c #B4832C",
"o. c #B68736",
"O. c #C28D2F",
"+. c #C48E3D",
"@. c #C39034",
"#. c #F0AF2F",
"$. c #F2B42D",
"%. c #F9B02F",
"&. c #EFA23D",
"*. c #EDAC3A",
"=. c #E8A836",
"-. c #F2AC35",
";. c #FBAD36",
":. c #F2A43C",
">. c #F5AE3E",
",. c #FBAC3C",
"<. c #EEB537",
"1. c #ECB33D",
"2. c #F2B234",
"3. c #F3B13E",
"4. c #F9B83D",
"5. c #E9AD2B",
"6. c #C49442",
"7. c #D59549",
"8. c #D79A47",
"9. c #DD9F54",
"0. c #D39B56",
"q. c #E39F46",
"w. c #E89F4A",
"e. c #DAA34D",
"r. c #D7A657",
"t. c #E5AA46",
"y. c #ECAD43",
"u. c #E4AA4E",
"i. c #EDAE4D",
"p. c #E9A64B",
"a. c #F3A644",
"s. c #F5AE42",
"d. c #FAAB42",
"f. c #F3A64C",
"g. c #F4AD4B",
"h. c #FBAC4A",
"j. c #F8A643",
"k. c #E7B543",
"l. c #EDB244",
"z. c #E6B44B",
"x. c #EDB14B",
"c. c #F2B142",
"v. c #FAB343",
"b. c #F4B14D",
"n. c #FCB24A",
"m. c #FFBA4A",
"M. c #EDA653",
"N. c #ECAB54",
"B. c #E4AA5F",
"V. c #EDAC5B",
"C. c #E7A757",
"Z. c #F3AD52",
"A. c #FAAC55",
"S. c #F3AB5B",
"D. c #FCAD5A",
"F. c #F4A45A",
"G. c #EDB354",
"H. c #E5B25D",
"J. c #EDB35A",
"K. c #EBB85F",
"L. c #F1B252",
"P. c #FAB352",
"I. c #F4B25C",
"U. c #F1BA5C",
"Y. c #FAB859",
"T. c #CF9F61",
"R. c #CE9F73",
"E. c #CDAE6D",
"W. c #DDA665",
"Q. c #DDAD64",
"!. c #DBAE6B",
"~. c #DCA56C",
"^. c #CBB06D",
"/. c #D7B46A",
"(. c #CCA874",
"). c #D5AB75",
"_. c #DDB770",
"`. c #E4AB6C",
"'. c #E6A664",
"]. c #F6AA62",
"[. c #EAB661",
"{. c #E1B26D",
"}. c #EAB66B",
"|. c #EAB865",
" X c #F3B463",
".X c #F4BC63",
"XX c #F7B66C",
"oX c #FAB867",
"OX c #E2AA71",
"+X c #E6B475",
"@X c #E6BC77",
"#X c #EDBC74",
"$X c #E6B37A",
"%X c #E6B678",
"&X c #FBB770",
"*X c #EAC06C",
"=X c #EFC070",
"-X c #F5C675",
";X c #E3B581",
":X c #CEBCAE",
">X c #DAC3B1",
",X c #DAC6AE",
"<X c #F4C6A2",
"1X c #DCD4CC",
"2X c #DED7D1",
"3X c #FFDECE",
"4X c #E0D9D3",
"5X c #FBDED8",
"6X c #FEE2CC",
"7X c #EBE2D8",
"8X c #F4E6DA",
"9X c #E5E5E3",
"0X c #E8E7E5",
"qX c #FFFAEF",
"wX c #FFF8F4",
"eX c #FFFEFB",
/* pixels */
"wXeX5XB a c m v l { n D [ a j v ] ] ] ] ] ] ] ] ] ] ] ] ] ] ] ] [ [ n b m z ] D D D A ! Q s V 4XeXeX",
"wXqX3Xb n k h d u h i p Q S k u h i i i i i i i Z h i h i i i Z Z i p h g g Z Z A Z C y G ] N 7XeXeX",
"6X6X<X} ) L F R Y L ' K ~ J ~ ) ) ) ) ) ) ) ) ) ) ) ) ) ) ) ) _ U U I ) / ( _ ~ ' F T U P W  .,X1X0X",
"x M } 0.V.oXG.G.p.p.Y.A.A.M.F.V.S.N.V.S.I.N.V.S.V.Z.V.S.S.V.V.L.h.g.L.N.V.V.F.D.M.I.L.i.p. X).< O 2 ",
"b c E &XS.Z.p.N.oXZ.g.f.A.h.A.A.b.b.n.g.g.c.g.s.s.b.g.s.b.c.g.b.c.h.c.h.Z.S.A.A.D. XB..XP.N.$X# . 2 ",
"c u )  XS.i.9.9.7. XZ.&.d.a.i.h.s.3.>.>.c.s.v.>.s.>.s.v.3.>.>.s.g.s.3.c.g.g.f.Z.u.0.r.6.G.N.!.> . 4 ",
"m u ) V.oX7.5 % r '. XP.n.v.y.b.s.>.>.s.>.>.s.>.s.>.>.>.s.>.>.s.g.i.3.1.x.i.s.Z.}.q + $ +..XT.; . 4 ",
"z g ` V.V.9.@ % 7 +XH.y.-.4.1.s.s.s.s.s.s.s.s.d.s.s.s.s.s.s.s.g.g.x.2.2.l.c.s.b.'.6 X + ...X%X: . 3 ",
"l y Y N.Y.8.r 8 f B.G.<.4.5.2.1.s.s.s.s.s.g.s.s.s.d.s.s.s.s.s.g.g.l.2.$.<.3.3.c.H.f 9 0 @.G.Q.; . 2 ",
"h f I p.b.oXr.#Xr.-Xt.<.4.#.4.1.s.s.s.s.s.s.s.s.s.c.s.s.s.g.s.c.s.3.$.$.2.3.,.s.K.r.*Xr.U.x.Q.> . 2 ",
"Q C T S.f.c.t.J.U.t.=.3.-.:.n.v.l.s.s.l.c.s.c.s.c.s.c.s.c.s.c.s.>.;.%.2.;.s.,.,.k.G.K.e.l.L.`.$ . 3 ",
"] i ~ D.n.m.b.*.y.=.4.v.;.>.s.a.s.s.s.3.s.c.>.s.s.c.s.3.>.c.s.>.;.;.;.,.s.g.d.j.a.i.t.b.n.Z.+X> O 2 ",
"[ S ^ ].a.&.v.*.v.3.v.,.d.h.f.g.s.3.s.3.>.>.>.3.>.>.v.s.>.>.>.>.,.,.d.s.g.g.h.j.j.n.s.m.s.q.~.; . 2 ",
"p p ^ &XA.h.m.c.3.1.:.:.h.h.a.b.s.s.>.s.v.c.s.>.s.s.>.c.s.3.>.s.d.d.d.g.b.h.j.d.d.n.*.s.s.I.+X; . 2 ",
"{ f _ F.f.h.-.5.2.v.v.n.h.a.y.s.s.a.s.s.s.a.g.s.s.s.d.c.s.s.d.s.s.s.x.k.1.1.>.>.:.s.v.3.v.I./.& . 2 ",
"l f ) V.A.n.*.v.<.l.y.s.s.d.m.*.d.s.h.s.h.s.d.s.d.d.a.s.h.s.h.s.g.s.k.k.1.1.>.,.v.>.v.-.c.t./., . 2 ",
"k i ) N.b.s.>.>.c.s.s.s.3.s.s.s.c.s.s.s.s.s.a.s.s.s.s.s.s.s.s.s.s.s.c.l.s.s.>.>.c.c.s.s.>.L.!.: . 2 ",
"] i ) M.b.>.v.s.s.s.c.3.>.s.d.s.d.c.s.s.>.s.c.s.s.s.s.s.s.s.s.s.s.s.c.3.g.s.>.s.c.c.d.d.>.L.!.* . 2 ",
"] i ) M.n.s.>.s.s.s.c.>.c.>.s.d.s.s.s.s.s.s.s.>.s.s.s.>.s.s.s.s.s.3.3.c.s.d.c.3.c.l.s.d.>.L.!.: . 3 ",
"] i ) Z.b.s.v.s.s.s.s.s.3.s.s.d.c.s.s.s.s.s.s.v.s.s.s.s.s.s.s.s.s.>.s.3.g.a.v.>.c.s.g.v.>.G.!.:   2 ",
"] i ) N.b.v.s.s.s.s.c.s.>.s.s.s.s.s.s.s.s.>.s.s.s.s.s.s.>.s.s.s.s.s.3.s.s.g.s.3.c.l.s.d.s.L.!.*   2 ",
"] i _ N.n.>.>.s.g.s.c.s.>.>.s.s.s.s.s.s.s.s.s.s.>.s.c.s.s.s.s.s.s.3.c.3.h.d.>.>.l.s.d.h.>.L.!.: . 2 ",
"] i ) u.b.s.s.s.s.s.s.3.>.v.s.s.s.s.>.s.s.s.s.s.s.s.s.s.s.s.s.>.s.s.3.c.s.f.s.3.c.c.s.d.>.L.!.:   2 ",
"D i ) N.b.>.v.s.s.c.y.s.>.c.s.d.s.s.s.s.s.s.>.s.s.s.>.s.s.s.s.s.s.3.c.3.g.d.s.3.c.x.s.d.s.L.!.: . 3 ",
"c i ) N.b.>.c.s.c.s.c.c.>.3.s.a.s.s.s.s.s.s.>.s.s.s.s.s.s.s.>.s.s.>.3.3.s.h.>.>.c.l.g.d.>.L.!.:   2 ",
"D i ) M.b.>.>.s.g.s.s.s.>.s.d.s.s.s.>.s.s.s.s.s.>.s.s.>.s.s.s.s.s.s.c.c.n.a.s.3.c.c.d.d.>.L.!.:   3 ",
"Q i ) N.n.v.s.s.s.s.s.3.3.v.s.s.s.s.s.s.s.s.s.s.s.s.s.s.>.s.s.s.s.3.>.c.s.g.>.3.c.x.d.d.s.Z.!.* . 2 ",
"] i ) N.b.>.>.d.s.s.y.s.s.>.d.s.s.c.s.s.>.s.s.s.s.s.s.s.s.s.c.s.s.>.c.3.g.d.s.>.c.c.s.s.>.b.!.:   2 ",
"] i ) N.b.c.s.s.s.s.s.c.s.s.d.s.s.s.s.s.c.s.s.s.s.s.s.s.s.s.s.s.s.3.c.c.h.d.>.c.c.c.g.s.>.L.!.: . 3 ",
"] i ) M.n.c.,.s.s.s.c.s.3.s.s.s.>.s.s.s.s.s.s.>.s.s.s.s.s.s.>.s.s.s.c.>.g.d.s.3.c.l.d.d.>.L.!.: . 2 ",
"] i ) N.b.c.v.s.s.s.s.3.>.s.s.s.s.s.s.s.s.s.s.s.>.s.s.>.s.s.s.s.s.c.c.c.s.d.>.>.c.y.d.v.>.Z./.:   2 ",
"D i U S.n.c.d.s.b.d.s.>.>.>.d.s.s.s.s.>.s.>.s.s.s.s.s.s.s.s.s.s.d.d.>.c.s.g.s.c.c.s.g.h.s.L.!.: . 2 ",
"Q C U f.n.s.g.g.Z.g.s.;.;.,.h.h.s.s.s.s.s.s.s.s.s.s.s.s.s.s.s.d.h.h.,.,.s.s.>.,.d.h.A.g.d.L.!.; . 2 ",
"] i U f.n.>.c.g.x.s.;.;.;.d.g.g.s.>.s.c.s.>.s.s.s.3.s.>.s.s.s.s.h.h.d.>.i.s.>.;.d.h.g.h.s.Z.!.:   3 ",
"n i ~ M.v.3.2.2.3.2.;.;.,.s.g.i.c.s.3.3.3.>.c.>.c.>.3.c.c.3.c.>.d.d.s.*.k.l.>.;.>.>.c.3.;.b.Q.- . 2 ",
"c h ) C.b.3.2.2.$.2.;.;.>.c.x.x.l.s.c.c.c.c.c.3.c.c.c.3.s.3.c.c.c.3.l.x.k.k.>.s.>.3.2.3.3.b.!.- . 2 ",
"l g ( '.I.l.l.<.1.1.s.d.s.l.k.z.s.g.g.g.h.s.g.s.s.s.g.d.b.s.h.c.c.l.x.z.z.z.g.s.c.1.<.<.3.L.!.: . 2 ",
"l d ^ '.I.g.c.l.c.s.h.d.s.l.k.1.c.d.d.d.a.g.d.d.d.f.d.d.g.d.d.s.>.3.i.x.z.z.s.h.b.1.<.<.s.L.!.; . 3 ",
"Q C ^ F.D.f.c.3.>.>.d.d.d.d.>.3.s.s.>.v.c.s.s.>.c.>.s.s.s.s.>.>.;.;.s.s.c.c.d.d.d.s.3.3.d.D.`.; . 2 ",
"Q C ' F.D.g.b.c.x.s.d.j.,.,.>.s.3.>.>.>.>.>.c.s.c.>.>.>.>.>.>.>.>.,.,.>.>.s.,.d.h.g.i.b.f.S.OX; . 2 ",
"S A ` F.C.N.|.H.Q.K.i.s.n.d.&.h.b.c.c.c.c.c.s.c.c.c.c.y.c.c.c.c.h.d.,.3.c.s.s.f.I.B.B.#Xp.[.).; . 2 ",
"{ i H  X.Xe.q 6 f Q.N.y.s.v.s.b.y.s.s.y.y.s.y.s.c.y.s.s.c.s.c.a.h.f.;.2.l.l.s.s.C.y 7 6 +.|.).: . 2 ",
"p G Y B.H.r.+ X : %X[.U.*.v.3.*.d.d.d.d.d.d.d.d.h.d.d.d.h.d.d.g.Z.h.3.2.l.l.c.b.H.6 @ + o.*X^.=   2 ",
"W G P N..X6.$ + e _.r.b.-.4.s.>.s.d.a.,.s.d.d.s.d.s.>.j.d.s.d.d.f.g.1.-.1.l.>.y.H.w + + X.|.^.= . 2 ",
"Z u J Z.L.x.O...X.J.p.s.d.d.n.b.s.,.d.d.d.,.s.>.d.,.d.d.d.>.d.s.h.d.;.3.>.>.>.g.G.+...o.G.U.Q.> . 4 ",
"c k ( &XN.Z..X.XU.I.Y.Z.Z.Z.G.N.L.N.i.L.x.L.g.N.i.L.b.i.L.i.g.N.G.Z.g.b.G.g.g.A.B.#X;X=Xe.N.#X+ . 2 ",
"N x | R.$X~.0._.!.W.`.'.`.`._./.!.!.!.!.!.!.!.!.!.!.!.!.!.!.!.!.!.!.!.!.!.Q.`.OX;XE.^._.!.$X(.9 o 2 ",
"8X8X>X> - > : ; ; ; ; ; > : * * : : : : : ; ; - : : : : : ; : : : ; : : ; - ; - - , & = > # < :X2X0X",
"eXeX1XO .   . .   . . . . . . . . .   . .   . .     .   . .     . .   .   . . . . .   . . . o 4XeXeX",
"eXeX0X2 2 2 2 2 2 2 2 2 2 2 2 2 2 2 2 2 2 2 2 2 2 2 2 2 2 2 2 2 2 2 2 2 2 2 2 2 3 2 2 3 2 1 2 0XeXeX"
};
