/* XPM */
static char *result[] = {
/* columns rows colors chars-per-pixel */
"64 64 226 2 ",
"   c #190909",
".  c #1C0D0D",
"X  c #16120B",
"o  c #1A1816",
"O  c #270B0A",
"+  c #3A0302",
"@  c #3B0E0E",
"#  c #31150C",
"$  c #231212",
"%  c #2B1615",
"&  c #241C13",
"*  c #2B1916",
"=  c #221D1C",
"-  c #2D1918",
";  c #351714",
":  c #331B1A",
">  c #3B1E1D",
",  c #182E0F",
"<  c #1B3811",
"1  c #282216",
"2  c #242C14",
"3  c #372416",
"4  c #35231D",
"5  c #3D211E",
"6  c #332C1C",
"7  c #283518",
"8  c #2D3E1A",
"9  c #39331F",
"0  c #35391D",
"q  c #3F2121",
"w  c #322A22",
"e  c #3E2C21",
"r  c #373928",
"t  c #3C3C3C",
"y  c #480606",
"u  c #550202",
"i  c #5B0505",
"p  c #451413",
"a  c #4B1414",
"s  c #471B1A",
"d  c #501313",
"f  c #650000",
"g  c #533B0B",
"h  c #4A3313",
"j  c #432222",
"k  c #4B2626",
"l  c #442B22",
"z  c #4B2A26",
"x  c #472E28",
"c  c #4E2828",
"v  c #512424",
"b  c #522A29",
"n  c #5C2E2E",
"m  c #493827",
"M  c #553D2C",
"N  c #413F3F",
"B  c #593734",
"V  c #543E32",
"C  c #602F2F",
"Z  c #653333",
"A  c #6B3535",
"S  c #653D35",
"D  c #713938",
"F  c #7B3E3E",
"G  c #13520F",
"H  c #125C0F",
"J  c #174713",
"K  c #1C4E14",
"L  c #145210",
"P  c #1D5315",
"I  c #135A11",
"U  c #1B5C15",
"Y  c #2E500F",
"T  c #2B4319",
"R  c #264818",
"E  c #2B4D1B",
"W  c #29551A",
"Q  c #30541E",
"!  c #1A6415",
"~  c #146C13",
"^  c #1B6916",
"/  c #1B6E16",
"(  c #157314",
")  c #1A7615",
"_  c #167B15",
"`  c #1B7B15",
"'  c #1E7D18",
"]  c #226319",
"[  c #26671A",
"{  c #387413",
"}  c #3C4B22",
"|  c #2E5C22",
" . c #2F6425",
".. c #297923",
"X. c #674D03",
"o. c #6D5109",
"O. c #4A6C0C",
"+. c #637609",
"@. c #544227",
"#. c #5D412C",
"$. c #574636",
"%. c #514D32",
"&. c #684A3C",
"*. c #7B403F",
"=. c #605836",
"-. c #476937",
";. c #746E36",
":. c #504742",
">. c #575846",
",. c #575454",
"<. c #774841",
"1. c #675A45",
"2. c #755844",
"3. c #50704F",
"4. c #7C684E",
"5. c #716C50",
"6. c #8D6D0B",
"7. c #997C08",
"8. c #AB6F00",
"9. c #997527",
"0. c #8D7338",
"q. c #834343",
"w. c #894747",
"e. c #856854",
"r. c #8E7554",
"t. c #8B715A",
"y. c #9A795A",
"u. c #977E6C",
"i. c #168316",
"p. c #188417",
"a. c #178A17",
"s. c #1B8619",
"d. c #198D18",
"f. c #199419",
"g. c #1A9A1A",
"h. c #24821B",
"j. c #278B25",
"k. c #219121",
"l. c #378E34",
"z. c #578936",
"x. c #499931",
"c. c #658435",
"v. c #5D8648",
"b. c #5F9B49",
"n. c #779157",
"m. c #7BA57B",
"M. c #868403",
"N. c #A78908",
"B. c #B48A03",
"V. c #BD9704",
"C. c #B18F18",
"Z. c #B8BB03",
"A. c #9D842C",
"S. c #B59726",
"D. c #B28D3A",
"F. c #CB8501",
"G. c #D38D02",
"H. c #C89308",
"J. c #DC9700",
"K. c #E99606",
"L. c #D6A703",
"P. c #D2B302",
"I. c #E2A400",
"U. c #F8A300",
"Y. c #EBB900",
"T. c #FCB900",
"R. c #C58F2D",
"E. c #CE9B26",
"W. c #F6C500",
"Q. c #FCC400",
"!. c #FECB00",
"~. c #F6DC00",
"^. c #EBE200",
"/. c #988A57",
"(. c #A58E46",
"). c #B99956",
"_. c #85A950",
"`. c #A7A75C",
"'. c #998565",
"]. c #8F936F",
"[. c #9C9D77",
"{. c #AC9363",
"}. c #A98D74",
"|. c #A89873",
" X c #B69377",
".X c #BC9B7B",
"XX c #9EA165",
"oX c #B9A468",
"OX c #BAA477",
"+X c #D7AA47",
"@X c #DCB24E",
"#X c #CCA658",
"$X c #E3BB5B",
"%X c #C7947B",
"&X c #D8B368",
"*X c #C5A776",
"=X c #C8B370",
"-X c #E7BB66",
";X c #F1B674",
":X c #F6CF6B",
">X c #FBD379",
",X c #90958B",
"<X c #A79785",
"1X c #B99E86",
"2X c #BFA68D",
"3X c #A3A2A2",
"4X c #F69089",
"5X c #C9B684",
"6X c #D0B68E",
"7X c #FFB2AD",
"8X c #D8C28D",
"9X c #DBC694",
"0X c #D0D193",
"qX c #E2C486",
"wX c #F5D388",
"eX c #E1CB97",
"rX c #E8D29B",
"tX c #F8DC9B",
"yX c #EED8A2",
"uX c #FBD6A4",
"iX c #F4DDA6",
"pX c #FDE3A4",
"aX c #F5E0AD",
"sX c #FCE4AB",
"dX c #FDE7B2",
"fX c #C9C8C8",
/* pixels */
"g.g.g.g.g.g.g.g.g.g.g.g.g.g.g.g.g.g.g.g.g.g.g.g.g.g.g.g.g.g.g.g.g.g.g.g.g.g.g.g.g.g.g.g.g.g.g.g.g.g.g.g.g.g.g.g.g.g.g.g.g.g.g.g.",
"g.g.g.g.g.g.g.g.g.g.g.g.g.g.g.g.g.g.g.g.g.g.g.g.g.g.g.g.g.g.g.g.g.g.g.g.g.g.g.g.g.g.g.g.g.g.g.g.g.g.g.g.g.g.g.g.g.g.g.g.g.g.g.g.",
"g.g.g.g.g.g.g.g.g.g.g.g.g.g.g.g.g.g.g.g.g.g.g.g.g.g.g.g.g.g.g.g.g.g.g.g.g.g.g.g.g.g.g.g.g.g.g.g.g.g.g.g.g.g.g.g.g.g.g.g.g.g.g.g.",
"g.g.g.g.g.g.g.g.g.g.g.g.g.g.g.g.g.g.g.g.g.g.g.g.g.g.g.g.g.g.g.g.g.g.g.g.g.g.g.g.g.g.g.g.g.g.g.g.g.g.g.g.g.g.g.g.g.g.g.g.g.g.g.g.",
"g.g.g.g.g.g.g.g.g.g.g.g.g.g.g.g.g.g.g.g.g.g.g.g.g.g.g.g.g.g.g.g.g.g.g.g.g.g.g.g.g.g.g.g.g.g.g.g.g.g.g.g.g.g.g.g.g.g.g.g.g.g.g.g.",
"g.g.g.g.g.g.g.g.g.g.g.g.g.g.g.g.g.g.g.g.g.g.g.g.g.g.g.g.f.[ Q [ ` g.g.g.g.g.g.g.g.g.g.g.g.g.g.g.g.g.g.g.g.g.g.g.g.g.g.g.g.g.g.g.",
"g.g.g.g.g.g.g.g.g.g.g.g.g.g.g.g.g.g.g.g.g.g.g.g.f.i.d.p.Q M C Z @.] d.g.g.g.g.g.g.g.g.g.g.g.g.g.g.g.g.g.g.g.g.g.g.g.g.g.g.g.g.g.",
"g.g.g.g.g.g.g.g.g.g.g.g.g.g.g.g.g.g.g.g.g.g.f.U r #.m m Z Z Z *.q.&.E a.g.g.g.g.g.g.g.g.g.g.g.g.g.g.g.g.g.g.g.g.g.g.g.g.g.g.g.g.",
"g.g.g.g.g.g.g.g.g.g.g.g.g.g.g.g.g.g.g.g.g.d.T A A Z Z Z Z Z Z <.w.w.F 8 f.g.g.g.g.g.g.g.g.g.g.g.g.g.g.g.g.g.g.g.g.g.g.g.g.g.g.g.",
"g.g.g.g.g.g.g.g.g.g.g.g.g.g.g.g.g.g.g.g.f.T A Z Z A Z Z Z Z Z D q.w.w.F T f.g.g.g.g.g.g.g.g.g.g.g.g.g.g.g.g.g.g.g.g.g.g.g.g.g.g.",
"g.g.g.g.g.g.g.g.g.g.g.g.g.g.g.g.g.g.g.g.U n Z Z Z Z Z Z Z Z Z Z q.w.w.w.D U g.g.g.g.g.g.g.g.g.g.g.g.g.g.g.g.g.g.g.g.g.g.g.g.g.g.",
"g.g.g.g.g.g.g.g.g.g.g.g.g.g.g.g.g.g.g.d.9 Z Z Z Z Z Z Z Z A Z Z D q.q.q.F m ( g.g.g.g.g.g.g.g.g.g.g.g.g.g.g.g.g.g.g.g.g.g.g.g.g.",
"g.g.g.g.g.g.g.g.g.g.g.g.g.g.g.g.g.g.g.~ n Z Z Z Z Z Z Z Z Z Z Z Z Z D A Z Z W g.g.g.g.g.g.g.g.g.g.g.g.g.g.g.g.g.g.g.g.g.g.g.g.g.",
"g.g.g.g.g.g.g.g.g.g.g.g.g.g.g.g.g.g.g.P Z Z Z Z A Z Z Z Z Z Z Z Z Z Z Z Z Z m _ g.g.g.g.g.g.g.g.g.g.g.g.g.g.g.g.g.g.g.g.g.g.g.g.",
"g.g.g.g.g.g.g.g.g.g.g.g.g.g.g.g.g.g.g.E Z Z Z Z Z Z Z A Z Z Z Z Z Z Z A Z Z b [ g.g.g.g.g.g.g.g.g.g.g.g.g.g.g.g.g.g.g.g.g.g.g.g.",
"g.g.g.g.g.g.g.g.g.g.g.g.g.g.g.g.g.g.g.T n Z Z Z C Z Z Z Z Z Z Z Z Z Z Z Z Z n W f.g.d.i._ f.g.g.g.g.g.g.g.g.g.g.g.g.g.g.g.g.g.g.",
"g.g.g.g.g.g.g.g.g.g.g.g.g.g.g.g.g.g.g.8 n b b b n n k Z Z Z Z Z Z Z Z Z C C C 8 ~ ! R 2 , ` g.g.g.g.g.g.g.g.g.g.g.g.g.g.g.g.g.g.",
"g.g.g.g.g.g.g.g.g.g.g.g.g.g.g.g.g.f._ 7 b C n n n n : Z Z n n c k k s s a d d # 2 3 4 : < i.g.g.g.g.g.g.g.g.g.g.g.g.g.g.g.g.g.g.",
"g.g.g.g.g.g.g.g.g.g.g.g.g.g.g.g.~ T @.Z Z Z Z Z Z Z j @ y y i i f f f f f f i + : q 5 * W g.g.g.g.g.g.g.g.g.g.g.g.g.g.g.g.g.g.g.",
"g.g.g.g.g.g.g.g.g.g.g.g.g.g.i.7 C A Z Z Z Z Z Z Z Z Z y f f f f f f f f f f f y ; q : 6 ( g.g.g.g.g.g.g.g.g.g.g.g.g.g.g.g.g.g.g.",
"g.g.g.g.g.g.g.g.g.g.g.g.g./ m A Z Z Z Z Z Z Z Z Z Z Z C a u i f f f f f f f f y ; > q E g.g.g.g.g.g.g.g.g.g.g.g.g.g.g.g.g.g.g.g.",
"g.g.g.g.g.g.g.g.g.g.g.g.p.} C Z Z Z Z Z Z Z Z Z Z Z Z Z C v d i i u u i u u y + ; j 0 _ g.g.g.g.g.g.g.g.g.g.g.g.g.g.g.g.g.g.g.g.",
"g.g.g.g.g.g.g.g.g.g.g.g.` m Z Z Z Z Z Z Z Z Z Z Z Z Z Z Z Z C b v s a p @ p a s 5 T _ g.g.g.g.g.g.g.g.g.g.g.g.g.g.g.g.g.g.g.g.g.",
"g.g.g.g.g.g.g.g.g.g.g.g.) 9 n C Z Z Z C Z C C C n n b b b c k k k k > > > 3 g T ! a.g.g.g.g.g.g.g.g.g.g.g.g.g.g.g.g.g.g.g.g.g.g.",
"g.g.g.g.g.g.g.g.g.g.g.g.a.J > j k k j j q j q j > 3 : - - ; h g X.o.6.H.L.^.Z.h.g.g.g.g.g.g.g.g.g.g.g.g.g.g.g.g.g.g.g.g.g.g.g.g.",
"g.g.g.g.g.g.g.g.g.g.g.g.g.f.I < , , , 1 w 2 X.6.7.B.L.L.Y.Q.T.T.U.K.Y.~.~.P.Y _ g.g.g.g.g.g.g.g.g.g.g.g.g.g.g.g.g.g.g.g.g.g.g.g.",
"g.g.g.g.g.g.g.g.g.g.g.g.g.g.g.g.g.g...[.yX:XY.!.Q.Q.Q.T.T.U.K.E.R.A.L.P.M.%.;.a.g.g.g.g.g.g.g.g.g.g.g.g.g.g.g.g.g.g.g.g.g.g.g.g.",
"g.g.g.g.g.g.g.g.g.g.g.g.g.g.g.g.g.k.v.|.D.J.L.I.I.J.G.H.R.9.g oX.XA.S.(.6 3X3.a.g.g.g.g.g.g.g.g.g.g.g.g.g.g.g.g.g.g.g.g.g.g.g.g.",
"g.g.g.g.g.g.g.g.g.g.g.g.g.g.g.g.g.i.n.5X@X@X+X#X&X&X&X4.N w t 8X5X5X0XpX:.,.3.i.g.g.g.g.g.g.g.g.g.g.g.g.g.g.g.g.g.g.g.g.g.g.g.g.",
"g.g.g.g.g.g.g.g.g.g.g.g.g.g.g.g.g.f.z.rX>X:X>XiXiXiXuXu.N ,.5.sXiXdXdXsX].N >.i.g.g.g.g.g.g.g.g.g.g.g.g.g.g.g.g.g.g.g.g.g.g.g.g.",
"g.g.g.g.g.g.g.g.g.g.g.g.g.g.g.g.g.g.! 5.tX>X:X>XsXuX7X4X%X}.yXsXiXsXpXsXyX1X*Xx.g.g.g.g.g.g.g.g.g.g.g.g.g.g.g.g.g.g.g.g.g.g.g.g.",
"g.g.g.g.g.g.g.g.g.g.g.g.g.g.g.g.g.g.{ N.7.;.9.$X-X:X-X;XwXtXuXpXrXOX6XiXeXXX..f.g.g.g.g.g.g.g.g.g.g.g.g.g.g.g.g.g.g.g.g.g.g.g.g.",
"g.g.g.g.g.g.g.g.g.g.g.g.g.g.g.g.g.d.c.Y.!.W.V.C.C.S.9.0.).#X#X#X=X*XoX`.c._ g.g.g.g.g.g.g.g.g.g.g.g.g.g.g.g.g.g.g.g.g.g.g.g.g.g.",
"g.g.g.g.g.g.g.g.g.g.g.g.g.g.d.( _ O.V.!.!.W.L.N.S.S.g z t.r.D.0.y.j =.-.d.g.g.g.g.g.g.g.g.g.g.g.g.g.g.g.g.g.g.g.g.g.g.g.g.g.g.g.",
"g.g.g.g.g.g.g.g.g.g.g.g.g.g.d.o.B.L.W.!.!.V.{.|.t.1X&.b 2.y.y.#.e.# $.1.L g.g.g.g.g.g.g.g.g.g.g.g.g.g.g.g.g.g.g.g.g.g.g.g.g.g.g.",
"g.g.g.g.g.g.g.g.g.g.g.g.g.g.g.U 8.J.T.!.!.;.t.2X}. Xy.j V  X;.+ 5 j V 1X<X~ g.g.g.g.g.g.g.g.g.g.g.g.g.g.g.g.g.g.g.g.g.g.g.g.g.g.",
"g.g.g.g.g.g.g.g.g.g.g.g.g.g.g.G X.G.U.U.E.uXqX}.6X2.#.: &.t.p &.e.> e u.|.| g.g.g.g.g.g.g.g.g.g.g.g.g.g.g.g.g.g.g.g.g.g.g.g.g.g.",
"g.g.g.g.g.g.g.g.g.g.g.g.g.g.g._ +.8.F.G.=XsXpX).u.l * % * > &..X1.% x OX9X! g.g.g.g.g.g.g.g.g.g.g.g.g.g.g.g.g.g.g.g.g.g.g.g.g.g.",
"g.g.g.g.g.g.g.g.g.g.g.g.g.g.g.g.d.` O.O.[.rX.X;.6 % : $ + <. X6X$.: #.9XaXb.g.g.g.g.g.g.g.g.g.g.g.g.g.g.g.g.g.g.g.g.g.g.g.g.g.g.",
"g.g.g.g.g.g.g.g.g.g.g.g.g.g.g.g.g.g.g.d.-.2.B l X $ O O O u.}.1Xx : #.8XaX0Xj.g.g.g.g.g.g.g.g.g.g.g.g.g.g.g.g.g.g.g.g.g.g.g.g.g.",
"g.g.g.g.g.g.g.g.g.g.g.g.g.g.g.g.g.g.g.g.E c q % % :   $ % :.<X<X: : S qXsXrXl.g.g.g.g.g.g.g.g.g.g.g.g.g.g.g.g.g.g.g.g.g.g.g.g.g.",
"g.g.g.g.g.g.g.g.g.g.g.g.g.g.g.g.g.g.g.g.! 5 % k : % /.# ; ,.fXfX% : 5 M V 1...g.g.g.g.g.g.g.g.g.g.g.g.g.g.g.g.g.g.g.g.g.g.g.g.g.",
"g.g.g.g.g.g.g.g.g.g.g.g.g.g.g.g.g.g.g.g.g.o k j j % V 1 - > :.B % : > 5 q = J f.g.g.g.g.g.g.g.g.g.g.g.g.g.g.g.g.g.g.g.g.g.g.g.g.",
"g.g.g.g.g.g.g.g.g.g.g.g.g.g.g.g.g.g.g.g.g.1 j j k % % O % s b v - % - $ = o K g.g.g.g.g.g.g.g.g.g.g.g.g.g.g.g.g.g.g.g.g.g.g.g.g.",
"g.g.g.g.g.g.g.g.g.g.g.g.g.g.g.g.g.g.g.g.g.! 4 j -   . - > k b k q : : $ o % K f.g.g.g.g.g.g.g.g.g.g.g.g.g.g.g.g.g.g.g.g.g.g.g.g.",
"g.g.g.g.g.g.g.g.g.g.g.g.g.g.g.g.g.g.g.g.g.f.P $ . $ j c j k b c j c j q . q 8 i.g.g.g.g.g.g.g.g.g.g.g.g.g.g.g.g.g.g.g.g.g.g.g.g.",
"g.g.g.g.g.g.g.g.g.g.g.g.g.g.g.g.g.g.g.g.g.g.a.H 2 4 ; > w q j 5 % 4 V 5.w j 8 d.g.g.g.g.g.g.g.g.g.g.g.g.g.g.g.g.g.g.g.g.g.g.g.g.",
"g.g.g.g.g.g.g.g.g.g.g.g.g.g.g.g.g.g.g.g.g.g.g.d.n.rXrXoX .~ ( ( 6 oXpXiX'.w I g.g.g.g.g.g.g.g.g.g.g.g.g.g.g.g.g.g.g.g.g.g.g.g.g.",
"g.g.g.g.g.g.g.g.g.g.g.g.g.g.g.g.g.g.g.g.g.g.g.s.].yXpX`.p.g.g.j.,X].wXsXaX>._ g.g.g.g.g.g.g.g.g.g.g.g.g.g.g.g.g.g.g.g.g.g.g.g.g.",
"g.g.g.g.g.g.g.g.g.g.g.g.g.g.g.g.g.g.g.g.g.g.f. .|.aXpX_.f.g.a.3.m.x.OX9XOX1.( g.g.g.g.g.g.g.g.g.g.g.g.g.g.g.g.g.g.g.g.g.g.g.g.g.",
"g.g.g.g.g.g.g.g.g.g.g.g.g.g.g.g.g.g.g.g.g.g.` 9 S 4.'.z.g.g.a.l.k.h.=.2.S x E g.g.g.g.g.g.g.g.g.g.g.g.g.g.g.g.g.g.g.g.g.g.g.g.g.",
"g.g.g.g.g.g.g.g.g.g.g.g.g.g.g.g.g.g.g.g.g.g.^ j b b m [ g.g.g.g.g.s.8 z c k T d.g.g.g.g.g.g.g.g.g.g.g.g.g.g.g.g.g.g.g.g.g.g.g.g.",
"g.g.g.g.g.g.g.g.g.g.g.g.g.g.g.g.g.g.g.g.g.g.^ & > j 5 a.g.g.g.g.g.g.W * - - R g.g.g.g.g.g.g.g.g.g.g.g.g.g.g.g.g.g.g.g.g.g.g.g.g.",
"g.g.g.g.g.g.g.g.g.g.g.g.g.g.g.g.g.f.[ Q } e k z j % G g.g.g.g.g.g.g.p.2 k b l 0 | W ' f.g.g.g.g.g.g.g.g.g.g.g.g.g.g.g.g.g.g.g.g.",
"g.g.g.g.g.g.g.g.g.g.g.g.g.g.g.g.f.! l Z Z b b b c 5 J g.g.g.g.g.g.g.U l z b b n Z C l ! f.g.g.g.g.g.g.g.g.g.g.g.g.g.g.g.g.g.g.g.",
"g.g.g.g.g.g.g.g.g.g.g.g.g.g.g.g.a.0 n n n b c b b b 2 g.g.g.g.g.g.f.R k b z b b n C n r i.g.g.g.g.g.g.g.g.g.g.g.g.g.g.g.g.g.g.g.",
"g.g.g.g.g.g.g.g.g.g.g.g.g.g.g.g.a.1 j > > > > > > 5 1 f.g.g.g.g.g.a.8 5 j j j j j c c e / g.g.g.g.g.g.g.g.g.g.g.g.g.g.g.g.g.g.g.",
"g.g.g.g.g.g.g.g.g.g.g.g.g.g.g.g.f._ ( ) ( ) ( ( ) ( ( g.g.g.g.g.g.f._ ~ ~ H H G G I L I i.g.g.g.g.g.g.g.g.g.g.g.g.g.g.g.g.g.g.g.",
"g.g.g.g.g.g.g.g.g.g.g.g.g.g.g.g.g.g.g.g.g.g.g.g.g.g.g.g.g.g.g.g.g.g.g.g.g.g.g.g.g.g.g.g.g.g.g.g.g.g.g.g.g.g.g.g.g.g.g.g.g.g.g.g.",
"g.g.g.g.g.g.g.g.g.g.g.g.g.g.g.g.g.g.g.g.g.g.g.g.g.g.g.g.g.g.g.g.g.g.g.g.g.g.g.g.g.g.g.g.g.g.g.g.g.g.g.g.g.g.g.g.g.g.g.g.g.g.g.g.",
"g.g.g.g.g.g.g.g.g.g.g.g.g.g.g.g.g.g.g.g.g.g.g.g.g.g.g.g.g.g.g.g.g.g.g.g.g.g.g.g.g.g.g.g.g.g.g.g.g.g.g.g.g.g.g.g.g.g.g.g.g.g.g.g.",
"g.g.g.g.g.g.g.g.g.g.g.g.g.g.g.g.g.g.g.g.g.g.g.g.g.g.g.g.g.g.g.g.g.g.g.g.g.g.g.g.g.g.g.g.g.g.g.g.g.g.g.g.g.g.g.g.g.g.g.g.g.g.g.g.",
"g.g.g.g.g.g.g.g.g.g.g.g.g.g.g.g.g.g.g.g.g.g.g.g.g.g.g.g.g.g.g.g.g.g.g.g.g.g.g.g.g.g.g.g.g.g.g.g.g.g.g.g.g.g.g.g.g.g.g.g.g.g.g.g.",
"g.g.g.g.g.g.g.g.g.g.g.g.g.g.g.g.g.g.g.g.g.g.g.g.g.g.g.g.g.g.g.g.g.g.g.g.g.g.g.g.g.g.g.g.g.g.g.g.g.g.g.g.g.g.g.g.g.g.g.g.g.g.g.g."
};
