/* XPM */
static char *result[] = {
/* columns rows colors chars-per-pixel */
"64 64 225 2 ",
"   c #190909",
".  c #1C0D0D",
"X  c #16120B",
"o  c #1A1816",
"O  c #270B0A",
"+  c #3A0302",
"@  c #3B0E0E",
"#  c #31150C",
"$  c #231212",
"%  c #2B1615",
"&  c #241C13",
"*  c #2B1916",
"=  c #221D1C",
"-  c #2D1918",
";  c #351714",
":  c #331B1A",
">  c #3B1E1D",
",  c #182E0F",
"<  c #1B3811",
"1  c #3F2A0C",
"2  c #282216",
"3  c #242C14",
"4  c #372416",
"5  c #35231D",
"6  c #3D211E",
"7  c #332C1C",
"8  c #283518",
"9  c #2D3E1A",
"0  c #39331F",
"q  c #35391D",
"w  c #3F2121",
"e  c #322A22",
"r  c #3E2C21",
"t  c #373928",
"y  c #3C3C3C",
"u  c #480606",
"i  c #550202",
"p  c #5B0505",
"a  c #451413",
"s  c #4B1414",
"d  c #471B1A",
"f  c #501313",
"g  c #650000",
"h  c #533B0B",
"j  c #4A3313",
"k  c #432222",
"l  c #4B2626",
"z  c #442B22",
"x  c #4B2A26",
"c  c #472E28",
"v  c #4E2828",
"b  c #512424",
"n  c #522A29",
"m  c #5C2E2E",
"M  c #493827",
"N  c #58332C",
"B  c #553D2C",
"V  c #413F3F",
"C  c #593734",
"Z  c #543E32",
"A  c #602F2F",
"S  c #653333",
"D  c #6B3535",
"F  c #653D35",
"G  c #713938",
"H  c #7B3E3E",
"J  c #13520F",
"K  c #125C0F",
"L  c #174713",
"P  c #1C4E14",
"I  c #145210",
"U  c #1D5315",
"Y  c #135A11",
"T  c #1B5C15",
"R  c #2B4319",
"E  c #264818",
"W  c #2B4D1B",
"Q  c #29551A",
"!  c #30541E",
"~  c #1A6415",
"^  c #146C13",
"/  c #1B6916",
"(  c #1B6E16",
")  c #157314",
"_  c #1A7615",
"`  c #167B15",
"'  c #1B7B15",
"]  c #226319",
"[  c #26671A",
"{  c #387413",
"}  c #3C4B22",
"|  c #2E5C22",
" . c #2F6425",
".. c #297923",
"X. c #435912",
"o. c #674D03",
"O. c #6D5109",
"+. c #4A6C0C",
"@. c #637609",
"#. c #544227",
"$. c #5D412C",
"%. c #574636",
"&. c #514D32",
"*. c #684A3C",
"=. c #605836",
"-. c #476937",
";. c #746E36",
":. c #504742",
">. c #575846",
",. c #575454",
"<. c #774841",
"1. c #675A45",
"2. c #755844",
"3. c #50704F",
"4. c #7C684E",
"5. c #716C50",
"6. c #8D6D0B",
"7. c #997C08",
"8. c #AB6F00",
"9. c #997527",
"0. c #8A6F3B",
"q. c #8D7338",
"w. c #834343",
"e. c #894747",
"r. c #856854",
"t. c #8E7554",
"y. c #8B715A",
"u. c #9A795A",
"i. c #977E6C",
"p. c #168316",
"a. c #188417",
"s. c #178A17",
"d. c #1B8619",
"f. c #198D18",
"g. c #199419",
"h. c #1A9A1A",
"j. c #24821B",
"k. c #278B25",
"l. c #219121",
"z. c #378E34",
"x. c #578936",
"c. c #499931",
"v. c #658435",
"b. c #5D8648",
"n. c #5F9B49",
"m. c #779157",
"M. c #7BA57B",
"N. c #A78908",
"B. c #B48A03",
"V. c #BD9704",
"C. c #B18F18",
"Z. c #B8BB03",
"A. c #9D842C",
"S. c #B59726",
"D. c #B28D3A",
"F. c #CB8501",
"G. c #D38D02",
"H. c #C89308",
"J. c #DC9700",
"K. c #E99606",
"L. c #D6A703",
"P. c #D2B302",
"I. c #E2A400",
"U. c #F8A300",
"Y. c #EBB900",
"T. c #FCB900",
"R. c #C58F2D",
"E. c #CE9B26",
"W. c #F6C500",
"Q. c #FCC400",
"!. c #FECB00",
"~. c #F6DC00",
"^. c #EBE200",
"/. c #988A57",
"(. c #A58E46",
"). c #B99956",
"_. c #85A950",
"`. c #A7A75C",
"'. c #998565",
"]. c #8F936F",
"[. c #9C9D77",
"{. c #AC9363",
"}. c #A98D74",
"|. c #A89873",
" X c #B69377",
".X c #BC9B7B",
"XX c #9EA165",
"oX c #B9A468",
"OX c #BAA477",
"+X c #D7AA47",
"@X c #DCB24E",
"#X c #CCA658",
"$X c #C7947B",
"%X c #D8B368",
"&X c #C5A776",
"*X c #C8B370",
"=X c #E7BB66",
"-X c #F1B674",
";X c #F6CF6B",
":X c #FBD379",
">X c #90958B",
",X c #A79785",
"<X c #B99E86",
"1X c #BFA68D",
"2X c #A3A2A2",
"3X c #F69089",
"4X c #C9B684",
"5X c #D0B68E",
"6X c #FFB2AD",
"7X c #D8C28D",
"8X c #DBC694",
"9X c #D0D193",
"0X c #E2C486",
"qX c #F5D388",
"wX c #E1CB97",
"eX c #E8D29B",
"rX c #F8DC9B",
"tX c #EED8A2",
"yX c #FBD6A4",
"uX c #F4DDA6",
"iX c #FDE3A4",
"pX c #F5E0AD",
"aX c #FCE4AB",
"sX c #FDE7B2",
"dX c #C9C8C8",
/* pixels */
"h.h.h.h.h.h.h.h.h.h.h.h.h.h.h.h.h.h.h.h.h.h.h.h.h.h.h.h.h.h.h.h.h.h.h.h.h.h.h.h.h.h.h.h.h.h.h.h.h.h.h.h.h.h.h.h.h.h.h.h.h.h.h.h.",
"h.h.h.h.h.h.h.h.h.h.h.h.h.h.h.h.h.h.h.h.h.h.h.h.h.h.h.h.h.h.h.h.h.h.h.h.h.h.h.h.h.h.h.h.h.h.h.h.h.h.h.h.h.h.h.h.h.h.h.h.h.h.h.h.",
"h.h.h.h.h.h.h.h.h.h.h.h.h.h.h.h.h.h.h.h.h.h.h.h.h.h.h.h.h.h.h.h.h.h.h.h.h.h.h.h.h.h.h.h.h.h.h.h.h.h.h.h.h.h.h.h.h.h.h.h.h.h.h.h.",
"h.h.h.h.h.h.h.h.h.h.h.h.h.h.h.h.h.h.h.h.h.h.h.h.h.h.h.h.h.h.h.h.h.h.h.h.h.h.h.h.h.h.h.h.h.h.h.h.h.h.h.h.h.h.h.h.h.h.h.h.h.h.h.h.",
"h.h.h.h.h.h.h.h.h.h.h.h.h.h.h.h.h.h.h.h.h.h.h.h.h.h.h.h.h.h.h.h.h.g.g.h.h.h.h.h.h.h.h.h.h.h.h.h.h.h.h.h.h.h.h.h.h.h.h.h.h.h.h.h.",
"h.h.h.h.h.h.h.h.h.h.h.h.h.h.h.h.h.h.h.h.h.h.h.h.h.h.h.h.h.h.h.' [ | [ f.h.h.h.h.h.h.h.h.h.h.h.h.h.h.h.h.h.h.h.h.h.h.h.h.h.h.h.h.",
"h.h.h.h.h.h.h.h.h.h.h.h.h.h.h.h.h.h.h.h.h.h.h.h.h.h.h.h.h.f.] #.S S N Q a.s.p.g.h.h.h.h.h.h.h.h.h.h.h.h.h.h.h.h.h.h.h.h.h.h.h.h.",
"h.h.h.h.h.h.h.h.h.h.h.h.h.h.h.h.h.h.h.h.h.h.h.h.h.h.h.h.s.W F w.H S D F M M B } ~ f.h.h.h.h.h.h.h.h.h.h.h.h.h.h.h.h.h.h.h.h.h.h.",
"h.h.h.h.h.h.h.h.h.h.h.h.h.h.h.h.h.h.h.h.h.h.h.h.h.h.h.g.9 H e.e.H S S S S S S D D 9 f.h.h.h.h.h.h.h.h.h.h.h.h.h.h.h.h.h.h.h.h.h.",
"h.h.h.h.h.h.h.h.h.h.h.h.h.h.h.h.h.h.h.h.h.h.h.h.h.h.g.E H e.e.e.G S S S S S S S S D 9 g.h.h.h.h.h.h.h.h.h.h.h.h.h.h.h.h.h.h.h.h.",
"h.h.h.h.h.h.h.h.h.h.h.h.h.h.h.h.h.h.h.h.h.h.h.h.h.g.Q G e.e.e.w.S D S S S D S S S S m T h.h.h.h.h.h.h.h.h.h.h.h.h.h.h.h.h.h.h.h.",
"h.h.h.h.h.h.h.h.h.h.h.h.h.h.h.h.h.h.h.h.h.h.h.h.h.` M H w.w.<.G S S S S S S S S S S S t f.h.h.h.h.h.h.h.h.h.h.h.h.h.h.h.h.h.h.h.",
"h.h.h.h.h.h.h.h.h.h.h.h.h.h.h.h.h.h.h.h.h.h.h.h.g.Q m D D G D S S S S S S S D S S S S N ) h.h.h.h.h.h.h.h.h.h.h.h.h.h.h.h.h.h.h.",
"h.h.h.h.h.h.h.h.h.h.h.h.h.h.h.h.h.h.h.h.h.h.h.h.` M S S S S S S S S S S S S S S S S S S U h.h.h.h.h.h.h.h.h.h.h.h.h.h.h.h.h.h.h.",
"h.h.h.h.h.h.h.h.h.h.h.h.h.h.h.h.h.h.h.h.h.h.h.h.[ n S S S S S S D S S D D S S S D S S A E h.h.h.h.h.h.h.h.h.h.h.h.h.h.h.h.h.h.h.",
"h.h.h.h.h.h.h.h.h.h.h.h.h.h.h.h.h.h.g.` p.g.h.g.Q m S S S D S S S S S S S S A A S S S A R h.h.h.h.h.h.h.h.h.h.h.h.h.h.h.h.h.h.h.",
"h.h.h.h.h.h.h.h.h.h.h.h.h.h.h.h.h.h.' , 3 E ~ ^ 9 A A S S S S S S S S D S v m n n n v m 9 h.h.h.h.h.h.h.h.h.h.h.h.h.h.h.h.h.h.h.",
"h.h.h.h.h.h.h.h.h.h.h.h.h.h.h.h.h.h.s.< : 5 5 3 # f s s d d l b v m m S S : A m m m m v 8 ` g.h.h.h.h.h.h.h.h.h.h.h.h.h.h.h.h.h.",
"h.h.h.h.h.h.h.h.h.h.h.h.h.h.h.h.h.h.h.Q - d 6 : + g p g g g g g p i u u @ k S S D D S S S B R / h.h.h.h.h.h.h.h.h.h.h.h.h.h.h.h.",
"h.h.h.h.h.h.h.h.h.h.h.h.h.h.h.h.h.h.h.) 7 : k ; u g g g g g g g g g g g a A S D S S S S S S G S 8 a.h.h.h.h.h.h.h.h.h.h.h.h.h.h.",
"h.h.h.h.h.h.h.h.h.h.h.h.h.h.h.h.h.h.h.g.W 6 > ; u g g g g g g g g p p a m S S S S S S S S S S S D M ( h.h.h.h.h.h.h.h.h.h.h.h.h.",
"h.h.h.h.h.h.h.h.h.h.h.h.h.h.h.h.h.h.h.h.p.9 k ; + u i i i p i i p s b S D S S S S S S S S S S S S A } a.h.h.h.h.h.h.h.h.h.h.h.h.",
"h.h.h.h.h.h.h.h.h.h.h.h.h.h.h.h.h.h.h.h.h.` R > d a @ a a s d b n S S S S S S S S S S D S S S S D S M ' h.h.h.h.h.h.h.h.h.h.h.h.",
"h.h.h.h.h.h.h.h.h.h.h.h.h.h.h.h.h.h.h.h.h.h.s.~ 1 X.d : > w l b l l l v n n m m m A m A C S S S A m 0 ) h.h.h.h.h.h.h.h.h.h.h.h.",
"h.h.h.h.h.h.h.h.h.h.h.h.h.h.h.h.h.h.h.h.h.h.h.h.{ Z.^.P.V.6.O.o.h j ; * ; : 4 k k k k w k k l k k > L s.h.h.h.h.h.h.h.h.h.h.h.h.",
"h.h.h.h.h.h.h.h.h.h.h.h.h.h.h.h.h.h.h.h.h.h.h.h.` ! P.~.!.Y.K.U.T.T.T.Y.P.H.B.7.6.o.4 7 2 , , < < K f.h.h.h.h.h.h.h.h.h.h.h.h.h.",
"h.h.h.h.h.h.h.h.h.h.h.h.h.h.h.h.h.h.h.h.h.h.h.h.s.;.&.v.P.P.A.S.K.J.U.T.T.Q.!.!.!.Y.;XeX[...h.h.h.h.h.h.h.h.h.h.h.h.h.h.h.h.h.h.",
"h.h.h.h.h.h.h.h.h.h.h.h.h.h.h.h.h.h.h.h.h.h.h.h.p.3.2X1 (.S.A.OXoX#.9.R.H.G.J.I.I.L.L.D.|.b.f.h.h.h.h.h.h.h.h.h.h.h.h.h.h.h.h.h.",
"h.h.h.h.h.h.h.h.h.h.h.h.h.h.h.h.h.h.h.h.h.h.h.h.p.-.,.:.uX8X7XOX5Xy e Z r.%X%X%X#X+X+X@X4Xm.p.h.h.h.h.h.h.h.h.h.h.h.h.h.h.h.h.h.",
"h.h.h.h.h.h.h.h.h.h.h.h.h.h.h.h.h.h.h.h.h.h.h.h.p.-.V ].aXsXsXpXpX5.,.V i.yXsXuXrX:X;X:XwXx.g.h.h.h.h.h.h.h.h.h.h.h.h.h.h.h.h.h.",
"h.h.h.h.h.h.h.h.h.h.h.h.h.h.h.h.h.h.h.h.h.h.h.h.c.$X.XuXaXaXaXiXsXtX}. X3X6XyXyXqX;X:XrXt.^ h.h.h.h.h.h.h.h.h.h.h.h.h.h.h.h.h.h.",
"h.h.h.h.h.h.h.h.h.h.h.h.h.h.h.h.h.h.h.h.h.h.h.h.h...XXeXiX5XOXeXaXiXrXqX-X=X;X=X@X9.;.7.N.{ h.h.h.h.h.h.h.h.h.h.h.h.h.h.h.h.h.h.",
"h.h.h.h.h.h.h.h.h.h.h.h.h.h.h.h.h.h.h.h.h.h.h.h.h.h._ v.`.oX&X*X#X#X).).0.9.S.C.C.V.W.!.Y.v.g.h.h.h.h.h.h.h.h.h.h.h.h.h.h.h.h.h.",
"h.h.h.h.h.h.h.h.h.h.h.h.h.h.h.h.h.h.h.h.h.h.h.h.h.h.h.f.-.=.d u.q.(.t.y.x h E.D.N.L.!.!.W.V.+._ ( f.h.h.h.h.h.h.h.h.h.h.h.h.h.h.",
"h.h.h.h.h.h.h.h.h.h.h.h.h.h.h.h.h.h.h.h.h.h.h.h.h.h.h.J 1.&.% r.$.D.u.2.x *.OXy.|.{.H.!.!.Q.L.B.O.s.h.h.h.h.h.h.h.h.h.h.h.h.h.h.",
"h.h.h.h.h.h.h.h.h.h.h.h.h.h.h.h.h.h.h.h.h.h.h.h.h.h.) ,X<XZ k w + 4. XZ l u.}.}.1Xy.;.!.!.Y.J.8.~ h.h.h.h.h.h.h.h.h.h.h.h.h.h.h.",
"h.h.h.h.h.h.h.h.h.h.h.h.h.h.h.h.h.h.h.h.h.h.h.h.h.h.| ,Xi.w > 4.*.s y.<.: $.2.5X}.7XuXE.U.U.F.o.J h.h.h.h.h.h.h.h.h.h.h.h.h.h.h.",
"h.h.h.h.h.h.h.h.h.h.h.h.h.h.h.h.h.h.h.h.h.h.h.h.h.h.~ 7XOXx - 2..X*.; ; % % r '.).rXaX*XG.G.8.@.' h.h.h.h.h.h.h.h.h.h.h.h.h.h.h.",
"h.h.h.h.h.h.h.h.h.h.h.h.h.h.h.h.h.h.h.h.h.h.h.h.h.g.n.pX7XB : %.4X.X2.O O : % e 4.oXwX|.+.{ ' g.h.h.h.h.h.h.h.h.h.h.h.h.h.h.h.h.",
"h.h.h.h.h.h.h.h.h.h.h.h.h.h.h.h.h.h.h.h.h.h.h.h.h.l.9XaX7X*.: c $X}.u.O O $ o X z Z 2.-.f.h.h.h.h.h.h.h.h.h.h.h.h.h.h.h.h.h.h.h.",
"h.h.h.h.h.h.h.h.h.h.h.h.h.h.h.h.h.h.h.h.h.h.h.h.h.z.eXaX0X$.: - ,X,X>.% O   ; % % d v W h.h.h.h.h.h.h.h.h.h.h.h.h.h.h.h.h.h.h.h.",
"h.h.h.h.h.h.h.h.h.h.h.h.h.h.h.h.h.h.h.h.h.h.h.h.h...>.%.B 6 : % dXdX,.: * /.% : l % > ~ h.h.h.h.h.h.h.h.h.h.h.h.h.h.h.h.h.h.h.h.",
"h.h.h.h.h.h.h.h.h.h.h.h.h.h.h.h.h.h.h.h.h.h.h.h.h.< = l > > : % C C : % : %.% k k l o h.h.h.h.h.h.h.h.h.h.h.h.h.h.h.h.h.h.h.h.h.",
"h.h.h.h.h.h.h.h.h.h.h.h.h.h.h.h.h.h.h.h.h.h.h.h.h.I o o $ : % : v v k % . % % k k k 2 g.h.h.h.h.h.h.h.h.h.h.h.h.h.h.h.h.h.h.h.h.",
"h.h.h.h.h.h.h.h.h.h.h.h.h.h.h.h.h.h.h.h.h.h.h.h.g.P * o $ : : w l v v > - . . : k 4 ~ h.h.h.h.h.h.h.h.h.h.h.h.h.h.h.h.h.h.h.h.h.",
"h.h.h.h.h.h.h.h.h.h.h.h.h.h.h.h.h.h.h.h.h.h.h.h.s.8 w X w k v w v n v k v w . . $ U g.h.h.h.h.h.h.h.h.h.h.h.h.h.h.h.h.h.h.h.h.h.",
"h.h.h.h.h.h.h.h.h.h.h.h.h.h.h.h.h.h.h.h.h.h.h.h.g.9 w e 4.Z 5 % w k w > > - e 3 Y s.h.h.h.h.h.h.h.h.h.h.h.h.h.h.h.h.h.h.h.h.h.h.",
"h.h.h.h.h.h.h.h.h.h.h.h.h.h.h.h.h.h.h.h.h.h.h.h.g.T e '.uXaXOX8 ^ ) ^  .oXtXwXm.g.h.h.h.h.h.h.h.h.h.h.h.h.h.h.h.h.h.h.h.h.h.h.h.",
"h.h.h.h.h.h.h.h.h.h.h.h.h.h.h.h.h.h.h.h.h.h.h.h.h.` >.pXsXqX/.>Xk.h.g.d.`.pXtX].d.h.h.h.h.h.h.h.h.h.h.h.h.h.h.h.h.h.h.h.h.h.h.h.",
"h.h.h.h.h.h.h.h.h.h.h.h.h.h.h.h.h.h.h.h.h.h.h.h.h._ 1.OXwXOXc.M.3.f.h.h._.iXuX|. .g.h.h.h.h.h.h.h.h.h.h.h.h.h.h.h.h.h.h.h.h.h.h.",
"h.h.h.h.h.h.h.h.h.h.h.h.h.h.h.h.h.h.h.h.h.h.h.h.h.W c F 2.=.j.l.z.f.h.h.x./.4.F 0 d.h.h.h.h.h.h.h.h.h.h.h.h.h.h.h.h.h.h.h.h.h.h.",
"h.h.h.h.h.h.h.h.h.h.h.h.h.h.h.h.h.h.h.h.h.h.h.h.f.E l n v 9 a.h.h.h.h.h.] N v v w [ h.h.h.h.h.h.h.h.h.h.h.h.h.h.h.h.h.h.h.h.h.h.",
"h.h.h.h.h.h.h.h.h.h.h.h.h.h.h.h.h.h.h.h.h.h.h.h.g.E - - : U h.h.h.h.h.h.s.5 l > 2 / g.h.h.h.h.h.h.h.h.h.h.h.h.h.h.h.h.h.h.h.h.h.",
"h.h.h.h.h.h.h.h.h.h.h.h.h.h.h.h.h.h.h.h.g.a.Q ! q c n x 3 a.h.h.h.h.h.h.h.J * k x k 0 } ! [ f.h.h.h.h.h.h.h.h.h.h.h.h.h.h.h.h.h.",
"h.h.h.h.h.h.h.h.h.h.h.h.h.h.h.h.h.h.h.g.~ z S S n n n v z T h.h.h.h.h.h.h.L k l n n m S S z ] h.h.h.h.h.h.h.h.h.h.h.h.h.h.h.h.h.",
"h.h.h.h.h.h.h.h.h.h.h.h.h.h.h.h.h.h.h.' q m m m n n v n l E g.h.h.h.h.h.h.3 v n n v b m A n q f.h.h.h.h.h.h.h.h.h.h.h.h.h.h.h.h.",
"h.h.h.h.h.h.h.h.h.h.h.h.h.h.h.h.h.h.h.( r v l l l k w w w 9 s.h.h.h.h.h.g.& w > 4 > d 4 k > 2 d.h.h.h.h.h.h.h.h.h.h.h.h.h.h.h.h.",
"h.h.h.h.h.h.h.h.h.h.h.h.h.h.h.h.h.h.h.p.Y J J J J Y Y ^ ^ ` h.h.h.h.h.h.h.) ) _ _ _ ) ) ) ) ` g.h.h.h.h.h.h.h.h.h.h.h.h.h.h.h.h.",
"h.h.h.h.h.h.h.h.h.h.h.h.h.h.h.h.h.h.h.h.h.h.h.h.h.h.h.h.h.h.h.h.h.h.h.h.h.h.h.h.h.h.h.h.h.h.h.h.h.h.h.h.h.h.h.h.h.h.h.h.h.h.h.h.",
"h.h.h.h.h.h.h.h.h.h.h.h.h.h.h.h.h.h.h.h.h.h.h.h.h.h.h.h.h.h.h.h.h.h.h.h.h.h.h.h.h.h.h.h.h.h.h.h.h.h.h.h.h.h.h.h.h.h.h.h.h.h.h.h.",
"h.h.h.h.h.h.h.h.h.h.h.h.h.h.h.h.h.h.h.h.h.h.h.h.h.h.h.h.h.h.h.h.h.h.h.h.h.h.h.h.h.h.h.h.h.h.h.h.h.h.h.h.h.h.h.h.h.h.h.h.h.h.h.h.",
"h.h.h.h.h.h.h.h.h.h.h.h.h.h.h.h.h.h.h.h.h.h.h.h.h.h.h.h.h.h.h.h.h.h.h.h.h.h.h.h.h.h.h.h.h.h.h.h.h.h.h.h.h.h.h.h.h.h.h.h.h.h.h.h.",
"h.h.h.h.h.h.h.h.h.h.h.h.h.h.h.h.h.h.h.h.h.h.h.h.h.h.h.h.h.h.h.h.h.h.h.h.h.h.h.h.h.h.h.h.h.h.h.h.h.h.h.h.h.h.h.h.h.h.h.h.h.h.h.h.",
"h.h.h.h.h.h.h.h.h.h.h.h.h.h.h.h.h.h.h.h.h.h.h.h.h.h.h.h.h.h.h.h.h.h.h.h.h.h.h.h.h.h.h.h.h.h.h.h.h.h.h.h.h.h.h.h.h.h.h.h.h.h.h.h."
};
