/* XPM */
static char *wall1652478405[] = {
/* columns rows colors chars-per-pixel */
"50 50 82 1 ",
"  c None",
". c #1B140C",
"X c #22150C",
"o c #22180F",
"O c #261B11",
"+ c #2B1E12",
"@ c #361E11",
"# c #2C2013",
"$ c #312114",
"% c #3B2213",
"& c #3A2919",
"* c #3F3322",
"= c #412414",
"- c #4B2715",
"; c #4E2916",
": c #432C1B",
"> c #4E2F1B",
", c #522A17",
"< c #592E19",
"1 c #4F301C",
"2 c #50301C",
"3 c #64331C",
"4 c #6A361E",
"5 c #6D381F",
"6 c #423524",
"7 c #623F27",
"8 c #693920",
"9 c #743C21",
"0 c #793E22",
"q c #58442D",
"w c #774125",
"e c #7C4224",
"r c #814325",
"t c #8A4727",
"y c #8B4827",
"u c #8C4928",
"i c #924C2A",
"p c #994F2C",
"a c #8A512F",
"s c #93502D",
"d c #99522D",
"f c #8D5A37",
"g c #935632",
"h c #9F5530",
"j c #945934",
"k c #9C5E37",
"l c #945D3A",
"z c #9C5F38",
"x c #A3542E",
"c c #A15630",
"v c #A35831",
"b c #A95A32",
"n c #B35C32",
"m c #B85F34",
"M c #9A603A",
"N c #BB6135",
"B c #B36539",
"V c #BA6639",
"C c #C6693A",
"Z c #C9693A",
"A c #DA713E",
"S c #AB7145",
"D c #A57249",
"F c #A8734A",
"G c #BF7141",
"H c #C17142",
"J c #CC7341",
"K c #D07946",
"L c #D97B46",
"P c #D27D4B",
"I c #D4804C",
"U c #C48353",
"Y c #CB8350",
"T c #E2854F",
"R c #E9864D",
"E c #E58F58",
"W c #F68D51",
"Q c #F69457",
"! c #E99D64",
"~ c #F79D60",
"^ c #F8BE80",
"/ c #F9C789",
/* pixels */
"eLWWWWWWWWWWWWWWWWWWWWW^  sRWWWWWWWWWWWWWWWWWWWWQ/",
"<ibbbbbxbbbbbbbbbbxbbbnIq&3xbbbbbbbbbbbbbbbbbbbbVR",
"<riiiiiiiiiiuiiiiiiiiipZ<+<yiiiiiiiiiiiiiisiiiiixA",
",riiiiiiiiiiiiiiiiiiiipZ2+<iiiiiiiipiiippsiiiiiixA",
",riiiiiiipiiiipiiiiiiipZ2#<yiipiiiiiiiipiiiipipibA",
"<riiiiiiiiiiiiiiiiiiiixZ2#<yiiiiipiiiiiiiiiiiiiixA",
",rpiiipiiiipiiiiipiiiixZ2#<ipiiiiiiiiiiiiiiiipiixA",
",riiiiiiiiiiiiiiiiiiiiiZ2+<yiiiiiiiiipiiiiipipiibA",
",riiiiiiipiiiipiiiiiiipZ2+<yiiiipiiiiiipiiiiiiiixA",
"<riipiiiiiiiiiiipiiiiipZ2#<yipiiiiiipiiipiiiiipixA",
",ripiiiiipiiiiiiiiiiiipZ>+<yiiiiiiiiiiiiiiiiiiiibA",
",riiiiiiiiiiiipiiipiiidZ2+<yipiiiiiiiiiiiipiiiiibA",
"<riiiiiiiiiiiiiiiiipiidZ2+<yiiiiiiiiiiiiiipiiiiixA",
",riiipiiiiiiiiiiiiiiispZ>+<yiiipiiiiiiiiiiiiiiiixA",
"-3555555555555555555449t%#-4555555555555555555880c",
" @%%%%%%%%%%%%%%%%%%%%%$#o+%%%%%%%%%%%%%%%%%%%%%- ",
" O#$##$$#$#oOO##+#########$$####++#+OOO#####++##& ",
" BGVVGGVGVF6O#aCCVGGGCGGGGVGGGGGHHHF*O$aHGGGGGHGU ",
"<bVVVVVVVVIjO&iVVVVVVVVVVVVVVVVVVVVPfO=iVVVVVVVVHE",
"2riiasiuiimc#%9yisusuiiiuiiuiisauiundO=9iuiiiiiixL",
"<riiiiisaimhO%0iiisiiiiiiiiiiiiiiiimdO=9iiiiiiiixA",
",riiiiiiiimh+=0iiiiiiiiiiipiiiiiiiimd+:9iiiiiiiixA",
"<riiiiiiiymhO%9iiiiiiiiiiiiiipiiiiimg+=9isippiiixA",
",riiiiiiiimh+%9iiiiiiiisiiiiiiiiiiimdO=9iiiiiiiixA",
",riiiiiiiimhO%9iiiiiiisiiiiiiiiiiiimdO=9iiiipiiixA",
",riisiiiiymh#%9iiiiiiiiiiiiiiiiiiiimhO=9iiiiiiiixA",
",riiiiiuiimh#=0iiisiiiiiiiiiiiiiiiimsO=9piipiiiixA",
"<eiiiiisiimhO%9iisiiiiiiiiisiisiiiimdO=9iiiiiiiixA",
"2riiiisiiymh+%9iiiiiiiiiiiiiiiiiiiimp+=9iiiiiiiixA",
",eiiiiiiiimhO%9iiiiiiiiiiiiiiiiiiiimp+=9iiiiiiiixA",
",riiiiiiiiNc#%9siiiiiiiiiiiiiisiiiimpO=9iipipiiixA",
",50000000eieO%30009w00000e00000e000i0O=300000000rn",
" %=========@OO%=======&&%===========+O+@========- ",
" .+oOoOOOoOoOOOOOOOOOOOOOOOOOOOOOOoOOOOOOOOOOOOO& ",
" gkkkkkkkkkkkkkkkklhkhl7OO:lzzzlkkkkzzzlzzzzzzzlF ",
"4BKZJJJJJJJJJJJJJJJJJJPP:+4HJJJJJJJJJJJJJJJJJJJJPQ",
",riuiiiuuiiuuiuiuuiiuiiZ2+<tiiuiiiuiuiiiiuiuiiiupA",
",riiiiiiiiiiiiiiiiiiiipZ,+<uiiiiiiiiiiiiisiiiiiixA",
",riiiiiiiiiiiiiuiiiiiipZ>+<tiiiiiiiiiiiiiiiiuiiixA",
",riiiiiuiiiiiiiiiiiiiipZ>+<tiiiiiiiiiiiiiiiiiiiixA",
",ritiiiiiiiiiuiiiiiiiupZ,+<tiuiiiuiiuiiiiiiiiiiixA",
",riiiuiiiiiiiiiiuiiiiipN2+<tiiiiiiiisiiiiiiiiiiuxA",
",riiiiuiiuiiiiiiiiiiiipZ2+<tiiiiiiiiiiiiiiiiiiiixA",
",riiiiiiiiiiuiiiiiuiiipZ,+<tiiiiiiiiiiiiiiugiiiixA",
",riiiiiiiiuiiiiiiiiiiupC1+<tiiiiiiiiiiiuiiiiiiuixJ",
",riiiuuiiuiiiuiiiiiiiupC1+<tiiiiiiiiiiiiiiiiiiiixA",
",riiiiuiiuuiiiiuiiuiiipZ2+<tiiiiiiiiiiiiiiiiiiiixJ",
",riiiiiiiiiiiiiiiiiiiipZ2+<tiiiiuiiiiiiiiiiiiiiuxL",
"-9rrrrrrrrrrrrrrrrrrrrtn-X,0rrrrrrrrrrrrrrrrrrrriN",
"=-,,-,-,,,-,,-,,--,,-,,3  --,,,-;;;,,,,;;;,;;;;;,4"
};
